<mxfile host="app.diagrams.net" modified="2023-10-04T08:02:54.782Z" agent="Mozilla/5.0 (Macintosh; Intel Mac OS X 10_15_7) AppleWebKit/537.36 (KHTML, like Gecko) Chrome/119.0.0.0 Safari/537.36 Edg/119.0.0.0" etag="2bLqUtLx515oOuUHEFLM" version="22.0.0" type="device">
  <diagram name="第 1 页" id="P4rSRZBpvHIHLTi7O7VT">
    <mxGraphModel dx="848" dy="1090" grid="0" gridSize="10" guides="1" tooltips="1" connect="1" arrows="1" fold="1" page="0" pageScale="1" pageWidth="827" pageHeight="1169" math="0" shadow="0">
      <root>
        <mxCell id="0" />
        <mxCell id="1" parent="0" />
        <mxCell id="vef4McNWfD5aa6jTENem-224" value="" style="html=1;shape=mxgraph.basic.isocube;isoAngle=15;fillColor=#dae8fc;strokeColor=#6c8ebf;" vertex="1" parent="1">
          <mxGeometry x="353" y="668" width="36" height="40" as="geometry" />
        </mxCell>
        <mxCell id="vef4McNWfD5aa6jTENem-225" value="" style="html=1;shape=mxgraph.basic.isocube;isoAngle=15;fillColor=#dae8fc;strokeColor=#6c8ebf;" vertex="1" parent="1">
          <mxGeometry x="335" y="677" width="36" height="40" as="geometry" />
        </mxCell>
        <mxCell id="vef4McNWfD5aa6jTENem-226" value="" style="html=1;shape=mxgraph.basic.isocube;isoAngle=15;fillColor=#f8cecc;strokeColor=#b85450;" vertex="1" parent="1">
          <mxGeometry x="317" y="686" width="36" height="40" as="geometry" />
        </mxCell>
        <mxCell id="vef4McNWfD5aa6jTENem-227" value="" style="html=1;shape=mxgraph.basic.isocube;isoAngle=15;fillColor=#dae8fc;strokeColor=#6c8ebf;" vertex="1" parent="1">
          <mxGeometry x="371" y="677" width="36" height="40" as="geometry" />
        </mxCell>
        <mxCell id="vef4McNWfD5aa6jTENem-228" value="" style="html=1;shape=mxgraph.basic.isocube;isoAngle=15;fillColor=#dae8fc;strokeColor=#6c8ebf;" vertex="1" parent="1">
          <mxGeometry x="353" y="686" width="36" height="40" as="geometry" />
        </mxCell>
        <mxCell id="vef4McNWfD5aa6jTENem-229" value="" style="html=1;shape=mxgraph.basic.isocube;isoAngle=15;fillColor=#f8cecc;strokeColor=#b85450;" vertex="1" parent="1">
          <mxGeometry x="335" y="695" width="36" height="40" as="geometry" />
        </mxCell>
        <mxCell id="vef4McNWfD5aa6jTENem-230" value="" style="html=1;shape=mxgraph.basic.isocube;isoAngle=15;fillColor=#e1d5e7;strokeColor=#9673a6;" vertex="1" parent="1">
          <mxGeometry x="389" y="686" width="36" height="40" as="geometry" />
        </mxCell>
        <mxCell id="vef4McNWfD5aa6jTENem-231" value="" style="html=1;shape=mxgraph.basic.isocube;isoAngle=15;fillColor=#fff2cc;strokeColor=#d6b656;" vertex="1" parent="1">
          <mxGeometry x="371" y="695" width="36" height="40" as="geometry" />
        </mxCell>
        <mxCell id="vef4McNWfD5aa6jTENem-232" value="" style="html=1;shape=mxgraph.basic.isocube;isoAngle=15;fillColor=#f8cecc;strokeColor=#b85450;" vertex="1" parent="1">
          <mxGeometry x="353" y="704" width="36" height="40" as="geometry" />
        </mxCell>
        <mxCell id="vef4McNWfD5aa6jTENem-233" value="" style="html=1;shape=mxgraph.basic.isocube;isoAngle=15;fillColor=#dae8fc;strokeColor=#6c8ebf;" vertex="1" parent="1">
          <mxGeometry x="353" y="645" width="36" height="40" as="geometry" />
        </mxCell>
        <mxCell id="vef4McNWfD5aa6jTENem-234" value="" style="html=1;shape=mxgraph.basic.isocube;isoAngle=15;fillColor=#dae8fc;strokeColor=#6c8ebf;" vertex="1" parent="1">
          <mxGeometry x="335" y="654" width="36" height="40" as="geometry" />
        </mxCell>
        <mxCell id="vef4McNWfD5aa6jTENem-235" value="" style="html=1;shape=mxgraph.basic.isocube;isoAngle=15;fillColor=#f8cecc;strokeColor=#b85450;" vertex="1" parent="1">
          <mxGeometry x="317" y="663" width="36" height="40" as="geometry" />
        </mxCell>
        <mxCell id="vef4McNWfD5aa6jTENem-236" value="" style="html=1;shape=mxgraph.basic.isocube;isoAngle=15;fillColor=#dae8fc;strokeColor=#6c8ebf;" vertex="1" parent="1">
          <mxGeometry x="371" y="654" width="36" height="40" as="geometry" />
        </mxCell>
        <mxCell id="vef4McNWfD5aa6jTENem-237" value="" style="html=1;shape=mxgraph.basic.isocube;isoAngle=15;fillColor=#dae8fc;strokeColor=#6c8ebf;" vertex="1" parent="1">
          <mxGeometry x="353" y="663" width="36" height="40" as="geometry" />
        </mxCell>
        <mxCell id="vef4McNWfD5aa6jTENem-238" value="" style="html=1;shape=mxgraph.basic.isocube;isoAngle=15;fillColor=#f8cecc;strokeColor=#b85450;" vertex="1" parent="1">
          <mxGeometry x="335" y="672" width="36" height="40" as="geometry" />
        </mxCell>
        <mxCell id="vef4McNWfD5aa6jTENem-239" value="" style="html=1;shape=mxgraph.basic.isocube;isoAngle=15;fillColor=#e1d5e7;strokeColor=#9673a6;" vertex="1" parent="1">
          <mxGeometry x="389" y="663" width="36" height="40" as="geometry" />
        </mxCell>
        <mxCell id="vef4McNWfD5aa6jTENem-240" value="" style="html=1;shape=mxgraph.basic.isocube;isoAngle=15;fillColor=#fff2cc;strokeColor=#d6b656;" vertex="1" parent="1">
          <mxGeometry x="371" y="672" width="36" height="40" as="geometry" />
        </mxCell>
        <mxCell id="vef4McNWfD5aa6jTENem-241" value="" style="html=1;shape=mxgraph.basic.isocube;isoAngle=15;fillColor=#f8cecc;strokeColor=#b85450;" vertex="1" parent="1">
          <mxGeometry x="353" y="681" width="36" height="40" as="geometry" />
        </mxCell>
        <mxCell id="vef4McNWfD5aa6jTENem-242" value="" style="html=1;shape=mxgraph.basic.isocube;isoAngle=15;fillColor=#e1d5e7;strokeColor=#9673a6;" vertex="1" parent="1">
          <mxGeometry x="353" y="622" width="36" height="40" as="geometry" />
        </mxCell>
        <mxCell id="vef4McNWfD5aa6jTENem-243" value="" style="html=1;shape=mxgraph.basic.isocube;isoAngle=15;fillColor=#fff2cc;strokeColor=#d6b656;" vertex="1" parent="1">
          <mxGeometry x="335" y="631" width="36" height="40" as="geometry" />
        </mxCell>
        <mxCell id="vef4McNWfD5aa6jTENem-244" value="" style="html=1;shape=mxgraph.basic.isocube;isoAngle=15;fillColor=#f8cecc;strokeColor=#b85450;" vertex="1" parent="1">
          <mxGeometry x="317" y="640" width="36" height="40" as="geometry" />
        </mxCell>
        <mxCell id="vef4McNWfD5aa6jTENem-245" value="" style="html=1;shape=mxgraph.basic.isocube;isoAngle=15;fillColor=#e1d5e7;strokeColor=#9673a6;" vertex="1" parent="1">
          <mxGeometry x="371" y="631" width="36" height="40" as="geometry" />
        </mxCell>
        <mxCell id="vef4McNWfD5aa6jTENem-246" value="" style="html=1;shape=mxgraph.basic.isocube;isoAngle=15;fillColor=#fff2cc;strokeColor=#d6b656;" vertex="1" parent="1">
          <mxGeometry x="353" y="640" width="36" height="40" as="geometry" />
        </mxCell>
        <mxCell id="vef4McNWfD5aa6jTENem-247" value="" style="html=1;shape=mxgraph.basic.isocube;isoAngle=15;fillColor=#f8cecc;strokeColor=#b85450;" vertex="1" parent="1">
          <mxGeometry x="335" y="649" width="36" height="40" as="geometry" />
        </mxCell>
        <mxCell id="vef4McNWfD5aa6jTENem-248" value="" style="html=1;shape=mxgraph.basic.isocube;isoAngle=15;fillColor=#e1d5e7;strokeColor=#9673a6;" vertex="1" parent="1">
          <mxGeometry x="389" y="640" width="36" height="40" as="geometry" />
        </mxCell>
        <mxCell id="vef4McNWfD5aa6jTENem-249" value="" style="html=1;shape=mxgraph.basic.isocube;isoAngle=15;fillColor=#fff2cc;strokeColor=#d6b656;" vertex="1" parent="1">
          <mxGeometry x="371" y="649" width="36" height="40" as="geometry" />
        </mxCell>
        <mxCell id="vef4McNWfD5aa6jTENem-250" value="" style="html=1;shape=mxgraph.basic.isocube;isoAngle=15;fillColor=#f8cecc;strokeColor=#b85450;" vertex="1" parent="1">
          <mxGeometry x="353" y="658" width="36" height="40" as="geometry" />
        </mxCell>
        <mxCell id="vef4McNWfD5aa6jTENem-251" value="h" style="text;html=1;align=center;verticalAlign=middle;resizable=0;points=[];autosize=1;strokeColor=none;fillColor=none;" vertex="1" parent="1">
          <mxGeometry x="390" y="726" width="25" height="26" as="geometry" />
        </mxCell>
        <mxCell id="vef4McNWfD5aa6jTENem-1" value="" style="shape=table;startSize=0;container=1;collapsible=0;childLayout=tableLayout;fontSize=16;fillColor=#dae8fc;strokeColor=#6c8ebf;" vertex="1" parent="1">
          <mxGeometry x="90" y="310" width="300" height="240" as="geometry" />
        </mxCell>
        <mxCell id="vef4McNWfD5aa6jTENem-2" value="" style="shape=tableRow;horizontal=0;startSize=0;swimlaneHead=0;swimlaneBody=0;strokeColor=inherit;top=0;left=0;bottom=0;right=0;collapsible=0;dropTarget=0;fillColor=none;points=[[0,0.5],[1,0.5]];portConstraint=eastwest;fontSize=16;" vertex="1" parent="vef4McNWfD5aa6jTENem-1">
          <mxGeometry width="300" height="40" as="geometry" />
        </mxCell>
        <mxCell id="vef4McNWfD5aa6jTENem-3" value="" style="shape=partialRectangle;html=1;whiteSpace=wrap;connectable=0;strokeColor=inherit;overflow=hidden;fillColor=none;top=0;left=0;bottom=0;right=0;pointerEvents=1;fontSize=16;" vertex="1" parent="vef4McNWfD5aa6jTENem-2">
          <mxGeometry width="60" height="40" as="geometry">
            <mxRectangle width="60" height="40" as="alternateBounds" />
          </mxGeometry>
        </mxCell>
        <mxCell id="vef4McNWfD5aa6jTENem-4" value="" style="shape=partialRectangle;html=1;whiteSpace=wrap;connectable=0;strokeColor=inherit;overflow=hidden;fillColor=none;top=0;left=0;bottom=0;right=0;pointerEvents=1;fontSize=16;" vertex="1" parent="vef4McNWfD5aa6jTENem-2">
          <mxGeometry x="60" width="60" height="40" as="geometry">
            <mxRectangle width="60" height="40" as="alternateBounds" />
          </mxGeometry>
        </mxCell>
        <mxCell id="vef4McNWfD5aa6jTENem-5" value="" style="shape=partialRectangle;html=1;whiteSpace=wrap;connectable=0;strokeColor=inherit;overflow=hidden;fillColor=none;top=0;left=0;bottom=0;right=0;pointerEvents=1;fontSize=16;" vertex="1" parent="vef4McNWfD5aa6jTENem-2">
          <mxGeometry x="120" width="60" height="40" as="geometry">
            <mxRectangle width="60" height="40" as="alternateBounds" />
          </mxGeometry>
        </mxCell>
        <mxCell id="vef4McNWfD5aa6jTENem-14" style="shape=partialRectangle;html=1;whiteSpace=wrap;connectable=0;strokeColor=inherit;overflow=hidden;fillColor=none;top=0;left=0;bottom=0;right=0;pointerEvents=1;fontSize=16;" vertex="1" parent="vef4McNWfD5aa6jTENem-2">
          <mxGeometry x="180" width="60" height="40" as="geometry">
            <mxRectangle width="60" height="40" as="alternateBounds" />
          </mxGeometry>
        </mxCell>
        <mxCell id="vef4McNWfD5aa6jTENem-17" style="shape=partialRectangle;html=1;whiteSpace=wrap;connectable=0;strokeColor=inherit;overflow=hidden;fillColor=none;top=0;left=0;bottom=0;right=0;pointerEvents=1;fontSize=16;" vertex="1" parent="vef4McNWfD5aa6jTENem-2">
          <mxGeometry x="240" width="60" height="40" as="geometry">
            <mxRectangle width="60" height="40" as="alternateBounds" />
          </mxGeometry>
        </mxCell>
        <mxCell id="vef4McNWfD5aa6jTENem-6" value="" style="shape=tableRow;horizontal=0;startSize=0;swimlaneHead=0;swimlaneBody=0;strokeColor=inherit;top=0;left=0;bottom=0;right=0;collapsible=0;dropTarget=0;fillColor=none;points=[[0,0.5],[1,0.5]];portConstraint=eastwest;fontSize=16;" vertex="1" parent="vef4McNWfD5aa6jTENem-1">
          <mxGeometry y="40" width="300" height="40" as="geometry" />
        </mxCell>
        <mxCell id="vef4McNWfD5aa6jTENem-7" value="" style="shape=partialRectangle;html=1;whiteSpace=wrap;connectable=0;strokeColor=inherit;overflow=hidden;fillColor=none;top=0;left=0;bottom=0;right=0;pointerEvents=1;fontSize=16;" vertex="1" parent="vef4McNWfD5aa6jTENem-6">
          <mxGeometry width="60" height="40" as="geometry">
            <mxRectangle width="60" height="40" as="alternateBounds" />
          </mxGeometry>
        </mxCell>
        <mxCell id="vef4McNWfD5aa6jTENem-8" value="" style="shape=partialRectangle;html=1;whiteSpace=wrap;connectable=0;strokeColor=inherit;overflow=hidden;fillColor=none;top=0;left=0;bottom=0;right=0;pointerEvents=1;fontSize=16;" vertex="1" parent="vef4McNWfD5aa6jTENem-6">
          <mxGeometry x="60" width="60" height="40" as="geometry">
            <mxRectangle width="60" height="40" as="alternateBounds" />
          </mxGeometry>
        </mxCell>
        <mxCell id="vef4McNWfD5aa6jTENem-9" value="" style="shape=partialRectangle;html=1;whiteSpace=wrap;connectable=0;strokeColor=inherit;overflow=hidden;fillColor=none;top=0;left=0;bottom=0;right=0;pointerEvents=1;fontSize=16;" vertex="1" parent="vef4McNWfD5aa6jTENem-6">
          <mxGeometry x="120" width="60" height="40" as="geometry">
            <mxRectangle width="60" height="40" as="alternateBounds" />
          </mxGeometry>
        </mxCell>
        <mxCell id="vef4McNWfD5aa6jTENem-15" style="shape=partialRectangle;html=1;whiteSpace=wrap;connectable=0;strokeColor=inherit;overflow=hidden;fillColor=none;top=0;left=0;bottom=0;right=0;pointerEvents=1;fontSize=16;" vertex="1" parent="vef4McNWfD5aa6jTENem-6">
          <mxGeometry x="180" width="60" height="40" as="geometry">
            <mxRectangle width="60" height="40" as="alternateBounds" />
          </mxGeometry>
        </mxCell>
        <mxCell id="vef4McNWfD5aa6jTENem-18" style="shape=partialRectangle;html=1;whiteSpace=wrap;connectable=0;strokeColor=inherit;overflow=hidden;fillColor=none;top=0;left=0;bottom=0;right=0;pointerEvents=1;fontSize=16;" vertex="1" parent="vef4McNWfD5aa6jTENem-6">
          <mxGeometry x="240" width="60" height="40" as="geometry">
            <mxRectangle width="60" height="40" as="alternateBounds" />
          </mxGeometry>
        </mxCell>
        <mxCell id="vef4McNWfD5aa6jTENem-10" value="" style="shape=tableRow;horizontal=0;startSize=0;swimlaneHead=0;swimlaneBody=0;strokeColor=inherit;top=0;left=0;bottom=0;right=0;collapsible=0;dropTarget=0;fillColor=none;points=[[0,0.5],[1,0.5]];portConstraint=eastwest;fontSize=16;" vertex="1" parent="vef4McNWfD5aa6jTENem-1">
          <mxGeometry y="80" width="300" height="40" as="geometry" />
        </mxCell>
        <mxCell id="vef4McNWfD5aa6jTENem-11" value="" style="shape=partialRectangle;html=1;whiteSpace=wrap;connectable=0;strokeColor=inherit;overflow=hidden;fillColor=none;top=0;left=0;bottom=0;right=0;pointerEvents=1;fontSize=16;" vertex="1" parent="vef4McNWfD5aa6jTENem-10">
          <mxGeometry width="60" height="40" as="geometry">
            <mxRectangle width="60" height="40" as="alternateBounds" />
          </mxGeometry>
        </mxCell>
        <mxCell id="vef4McNWfD5aa6jTENem-12" value="" style="shape=partialRectangle;html=1;whiteSpace=wrap;connectable=0;strokeColor=inherit;overflow=hidden;fillColor=none;top=0;left=0;bottom=0;right=0;pointerEvents=1;fontSize=16;" vertex="1" parent="vef4McNWfD5aa6jTENem-10">
          <mxGeometry x="60" width="60" height="40" as="geometry">
            <mxRectangle width="60" height="40" as="alternateBounds" />
          </mxGeometry>
        </mxCell>
        <mxCell id="vef4McNWfD5aa6jTENem-13" value="" style="shape=partialRectangle;html=1;whiteSpace=wrap;connectable=0;strokeColor=inherit;overflow=hidden;fillColor=none;top=0;left=0;bottom=0;right=0;pointerEvents=1;fontSize=16;" vertex="1" parent="vef4McNWfD5aa6jTENem-10">
          <mxGeometry x="120" width="60" height="40" as="geometry">
            <mxRectangle width="60" height="40" as="alternateBounds" />
          </mxGeometry>
        </mxCell>
        <mxCell id="vef4McNWfD5aa6jTENem-16" style="shape=partialRectangle;html=1;whiteSpace=wrap;connectable=0;strokeColor=inherit;overflow=hidden;fillColor=none;top=0;left=0;bottom=0;right=0;pointerEvents=1;fontSize=16;" vertex="1" parent="vef4McNWfD5aa6jTENem-10">
          <mxGeometry x="180" width="60" height="40" as="geometry">
            <mxRectangle width="60" height="40" as="alternateBounds" />
          </mxGeometry>
        </mxCell>
        <mxCell id="vef4McNWfD5aa6jTENem-19" style="shape=partialRectangle;html=1;whiteSpace=wrap;connectable=0;strokeColor=inherit;overflow=hidden;fillColor=none;top=0;left=0;bottom=0;right=0;pointerEvents=1;fontSize=16;" vertex="1" parent="vef4McNWfD5aa6jTENem-10">
          <mxGeometry x="240" width="60" height="40" as="geometry">
            <mxRectangle width="60" height="40" as="alternateBounds" />
          </mxGeometry>
        </mxCell>
        <mxCell id="vef4McNWfD5aa6jTENem-20" style="shape=tableRow;horizontal=0;startSize=0;swimlaneHead=0;swimlaneBody=0;strokeColor=inherit;top=0;left=0;bottom=0;right=0;collapsible=0;dropTarget=0;fillColor=none;points=[[0,0.5],[1,0.5]];portConstraint=eastwest;fontSize=16;" vertex="1" parent="vef4McNWfD5aa6jTENem-1">
          <mxGeometry y="120" width="300" height="40" as="geometry" />
        </mxCell>
        <mxCell id="vef4McNWfD5aa6jTENem-21" style="shape=partialRectangle;html=1;whiteSpace=wrap;connectable=0;strokeColor=inherit;overflow=hidden;fillColor=none;top=0;left=0;bottom=0;right=0;pointerEvents=1;fontSize=16;" vertex="1" parent="vef4McNWfD5aa6jTENem-20">
          <mxGeometry width="60" height="40" as="geometry">
            <mxRectangle width="60" height="40" as="alternateBounds" />
          </mxGeometry>
        </mxCell>
        <mxCell id="vef4McNWfD5aa6jTENem-22" style="shape=partialRectangle;html=1;whiteSpace=wrap;connectable=0;strokeColor=inherit;overflow=hidden;fillColor=none;top=0;left=0;bottom=0;right=0;pointerEvents=1;fontSize=16;" vertex="1" parent="vef4McNWfD5aa6jTENem-20">
          <mxGeometry x="60" width="60" height="40" as="geometry">
            <mxRectangle width="60" height="40" as="alternateBounds" />
          </mxGeometry>
        </mxCell>
        <mxCell id="vef4McNWfD5aa6jTENem-23" style="shape=partialRectangle;html=1;whiteSpace=wrap;connectable=0;strokeColor=inherit;overflow=hidden;fillColor=none;top=0;left=0;bottom=0;right=0;pointerEvents=1;fontSize=16;" vertex="1" parent="vef4McNWfD5aa6jTENem-20">
          <mxGeometry x="120" width="60" height="40" as="geometry">
            <mxRectangle width="60" height="40" as="alternateBounds" />
          </mxGeometry>
        </mxCell>
        <mxCell id="vef4McNWfD5aa6jTENem-24" style="shape=partialRectangle;html=1;whiteSpace=wrap;connectable=0;strokeColor=inherit;overflow=hidden;fillColor=none;top=0;left=0;bottom=0;right=0;pointerEvents=1;fontSize=16;" vertex="1" parent="vef4McNWfD5aa6jTENem-20">
          <mxGeometry x="180" width="60" height="40" as="geometry">
            <mxRectangle width="60" height="40" as="alternateBounds" />
          </mxGeometry>
        </mxCell>
        <mxCell id="vef4McNWfD5aa6jTENem-25" style="shape=partialRectangle;html=1;whiteSpace=wrap;connectable=0;strokeColor=inherit;overflow=hidden;fillColor=none;top=0;left=0;bottom=0;right=0;pointerEvents=1;fontSize=16;" vertex="1" parent="vef4McNWfD5aa6jTENem-20">
          <mxGeometry x="240" width="60" height="40" as="geometry">
            <mxRectangle width="60" height="40" as="alternateBounds" />
          </mxGeometry>
        </mxCell>
        <mxCell id="vef4McNWfD5aa6jTENem-26" style="shape=tableRow;horizontal=0;startSize=0;swimlaneHead=0;swimlaneBody=0;strokeColor=inherit;top=0;left=0;bottom=0;right=0;collapsible=0;dropTarget=0;fillColor=none;points=[[0,0.5],[1,0.5]];portConstraint=eastwest;fontSize=16;" vertex="1" parent="vef4McNWfD5aa6jTENem-1">
          <mxGeometry y="160" width="300" height="40" as="geometry" />
        </mxCell>
        <mxCell id="vef4McNWfD5aa6jTENem-27" style="shape=partialRectangle;html=1;whiteSpace=wrap;connectable=0;strokeColor=inherit;overflow=hidden;fillColor=none;top=0;left=0;bottom=0;right=0;pointerEvents=1;fontSize=16;" vertex="1" parent="vef4McNWfD5aa6jTENem-26">
          <mxGeometry width="60" height="40" as="geometry">
            <mxRectangle width="60" height="40" as="alternateBounds" />
          </mxGeometry>
        </mxCell>
        <mxCell id="vef4McNWfD5aa6jTENem-28" style="shape=partialRectangle;html=1;whiteSpace=wrap;connectable=0;strokeColor=inherit;overflow=hidden;fillColor=none;top=0;left=0;bottom=0;right=0;pointerEvents=1;fontSize=16;" vertex="1" parent="vef4McNWfD5aa6jTENem-26">
          <mxGeometry x="60" width="60" height="40" as="geometry">
            <mxRectangle width="60" height="40" as="alternateBounds" />
          </mxGeometry>
        </mxCell>
        <mxCell id="vef4McNWfD5aa6jTENem-29" style="shape=partialRectangle;html=1;whiteSpace=wrap;connectable=0;strokeColor=inherit;overflow=hidden;fillColor=none;top=0;left=0;bottom=0;right=0;pointerEvents=1;fontSize=16;" vertex="1" parent="vef4McNWfD5aa6jTENem-26">
          <mxGeometry x="120" width="60" height="40" as="geometry">
            <mxRectangle width="60" height="40" as="alternateBounds" />
          </mxGeometry>
        </mxCell>
        <mxCell id="vef4McNWfD5aa6jTENem-30" style="shape=partialRectangle;html=1;whiteSpace=wrap;connectable=0;strokeColor=inherit;overflow=hidden;fillColor=none;top=0;left=0;bottom=0;right=0;pointerEvents=1;fontSize=16;" vertex="1" parent="vef4McNWfD5aa6jTENem-26">
          <mxGeometry x="180" width="60" height="40" as="geometry">
            <mxRectangle width="60" height="40" as="alternateBounds" />
          </mxGeometry>
        </mxCell>
        <mxCell id="vef4McNWfD5aa6jTENem-31" style="shape=partialRectangle;html=1;whiteSpace=wrap;connectable=0;strokeColor=inherit;overflow=hidden;fillColor=none;top=0;left=0;bottom=0;right=0;pointerEvents=1;fontSize=16;" vertex="1" parent="vef4McNWfD5aa6jTENem-26">
          <mxGeometry x="240" width="60" height="40" as="geometry">
            <mxRectangle width="60" height="40" as="alternateBounds" />
          </mxGeometry>
        </mxCell>
        <mxCell id="vef4McNWfD5aa6jTENem-32" style="shape=tableRow;horizontal=0;startSize=0;swimlaneHead=0;swimlaneBody=0;strokeColor=inherit;top=0;left=0;bottom=0;right=0;collapsible=0;dropTarget=0;fillColor=none;points=[[0,0.5],[1,0.5]];portConstraint=eastwest;fontSize=16;" vertex="1" parent="vef4McNWfD5aa6jTENem-1">
          <mxGeometry y="200" width="300" height="40" as="geometry" />
        </mxCell>
        <mxCell id="vef4McNWfD5aa6jTENem-33" style="shape=partialRectangle;html=1;whiteSpace=wrap;connectable=0;strokeColor=inherit;overflow=hidden;fillColor=none;top=0;left=0;bottom=0;right=0;pointerEvents=1;fontSize=16;" vertex="1" parent="vef4McNWfD5aa6jTENem-32">
          <mxGeometry width="60" height="40" as="geometry">
            <mxRectangle width="60" height="40" as="alternateBounds" />
          </mxGeometry>
        </mxCell>
        <mxCell id="vef4McNWfD5aa6jTENem-34" style="shape=partialRectangle;html=1;whiteSpace=wrap;connectable=0;strokeColor=inherit;overflow=hidden;fillColor=none;top=0;left=0;bottom=0;right=0;pointerEvents=1;fontSize=16;" vertex="1" parent="vef4McNWfD5aa6jTENem-32">
          <mxGeometry x="60" width="60" height="40" as="geometry">
            <mxRectangle width="60" height="40" as="alternateBounds" />
          </mxGeometry>
        </mxCell>
        <mxCell id="vef4McNWfD5aa6jTENem-35" style="shape=partialRectangle;html=1;whiteSpace=wrap;connectable=0;strokeColor=inherit;overflow=hidden;fillColor=none;top=0;left=0;bottom=0;right=0;pointerEvents=1;fontSize=16;" vertex="1" parent="vef4McNWfD5aa6jTENem-32">
          <mxGeometry x="120" width="60" height="40" as="geometry">
            <mxRectangle width="60" height="40" as="alternateBounds" />
          </mxGeometry>
        </mxCell>
        <mxCell id="vef4McNWfD5aa6jTENem-36" style="shape=partialRectangle;html=1;whiteSpace=wrap;connectable=0;strokeColor=inherit;overflow=hidden;fillColor=none;top=0;left=0;bottom=0;right=0;pointerEvents=1;fontSize=16;" vertex="1" parent="vef4McNWfD5aa6jTENem-32">
          <mxGeometry x="180" width="60" height="40" as="geometry">
            <mxRectangle width="60" height="40" as="alternateBounds" />
          </mxGeometry>
        </mxCell>
        <mxCell id="vef4McNWfD5aa6jTENem-37" style="shape=partialRectangle;html=1;whiteSpace=wrap;connectable=0;strokeColor=inherit;overflow=hidden;fillColor=none;top=0;left=0;bottom=0;right=0;pointerEvents=1;fontSize=16;" vertex="1" parent="vef4McNWfD5aa6jTENem-32">
          <mxGeometry x="240" width="60" height="40" as="geometry">
            <mxRectangle width="60" height="40" as="alternateBounds" />
          </mxGeometry>
        </mxCell>
        <mxCell id="vef4McNWfD5aa6jTENem-38" value="" style="shape=curlyBracket;whiteSpace=wrap;html=1;rounded=1;labelPosition=left;verticalLabelPosition=middle;align=right;verticalAlign=middle;" vertex="1" parent="1">
          <mxGeometry x="60" y="310" width="20" height="240" as="geometry" />
        </mxCell>
        <mxCell id="vef4McNWfD5aa6jTENem-39" value="&lt;font style=&quot;font-size: 20px;&quot;&gt;batch&lt;/font&gt;" style="text;html=1;align=center;verticalAlign=middle;resizable=0;points=[];autosize=1;strokeColor=none;fillColor=none;" vertex="1" parent="1">
          <mxGeometry x="-6" y="410" width="70" height="40" as="geometry" />
        </mxCell>
        <mxCell id="vef4McNWfD5aa6jTENem-40" value="" style="shape=curlyBracket;whiteSpace=wrap;html=1;rounded=1;labelPosition=left;verticalLabelPosition=middle;align=right;verticalAlign=middle;rotation=90;" vertex="1" parent="1">
          <mxGeometry x="230" y="140" width="20" height="300" as="geometry" />
        </mxCell>
        <mxCell id="vef4McNWfD5aa6jTENem-41" value="&lt;font style=&quot;font-size: 19px;&quot;&gt;sample&lt;/font&gt;" style="text;html=1;align=center;verticalAlign=middle;resizable=0;points=[];autosize=1;strokeColor=none;fillColor=none;" vertex="1" parent="1">
          <mxGeometry x="200" y="240" width="80" height="40" as="geometry" />
        </mxCell>
        <mxCell id="vef4McNWfD5aa6jTENem-42" value="" style="shape=table;startSize=0;container=1;collapsible=0;childLayout=tableLayout;fontSize=16;fillColor=#dae8fc;strokeColor=#6c8ebf;" vertex="1" parent="1">
          <mxGeometry x="527" y="310" width="300" height="240" as="geometry" />
        </mxCell>
        <mxCell id="vef4McNWfD5aa6jTENem-43" value="" style="shape=tableRow;horizontal=0;startSize=0;swimlaneHead=0;swimlaneBody=0;strokeColor=inherit;top=0;left=0;bottom=0;right=0;collapsible=0;dropTarget=0;fillColor=none;points=[[0,0.5],[1,0.5]];portConstraint=eastwest;fontSize=16;" vertex="1" parent="vef4McNWfD5aa6jTENem-42">
          <mxGeometry width="300" height="40" as="geometry" />
        </mxCell>
        <mxCell id="vef4McNWfD5aa6jTENem-44" value="" style="shape=partialRectangle;html=1;whiteSpace=wrap;connectable=0;strokeColor=inherit;overflow=hidden;fillColor=none;top=0;left=0;bottom=0;right=0;pointerEvents=1;fontSize=16;" vertex="1" parent="vef4McNWfD5aa6jTENem-43">
          <mxGeometry width="60" height="40" as="geometry">
            <mxRectangle width="60" height="40" as="alternateBounds" />
          </mxGeometry>
        </mxCell>
        <mxCell id="vef4McNWfD5aa6jTENem-45" value="" style="shape=partialRectangle;html=1;whiteSpace=wrap;connectable=0;strokeColor=inherit;overflow=hidden;fillColor=none;top=0;left=0;bottom=0;right=0;pointerEvents=1;fontSize=16;" vertex="1" parent="vef4McNWfD5aa6jTENem-43">
          <mxGeometry x="60" width="60" height="40" as="geometry">
            <mxRectangle width="60" height="40" as="alternateBounds" />
          </mxGeometry>
        </mxCell>
        <mxCell id="vef4McNWfD5aa6jTENem-46" value="" style="shape=partialRectangle;html=1;whiteSpace=wrap;connectable=0;strokeColor=inherit;overflow=hidden;fillColor=none;top=0;left=0;bottom=0;right=0;pointerEvents=1;fontSize=16;" vertex="1" parent="vef4McNWfD5aa6jTENem-43">
          <mxGeometry x="120" width="60" height="40" as="geometry">
            <mxRectangle width="60" height="40" as="alternateBounds" />
          </mxGeometry>
        </mxCell>
        <mxCell id="vef4McNWfD5aa6jTENem-47" style="shape=partialRectangle;html=1;whiteSpace=wrap;connectable=0;strokeColor=inherit;overflow=hidden;fillColor=none;top=0;left=0;bottom=0;right=0;pointerEvents=1;fontSize=16;" vertex="1" parent="vef4McNWfD5aa6jTENem-43">
          <mxGeometry x="180" width="60" height="40" as="geometry">
            <mxRectangle width="60" height="40" as="alternateBounds" />
          </mxGeometry>
        </mxCell>
        <mxCell id="vef4McNWfD5aa6jTENem-48" style="shape=partialRectangle;html=1;whiteSpace=wrap;connectable=0;strokeColor=inherit;overflow=hidden;fillColor=none;top=0;left=0;bottom=0;right=0;pointerEvents=1;fontSize=16;" vertex="1" parent="vef4McNWfD5aa6jTENem-43">
          <mxGeometry x="240" width="60" height="40" as="geometry">
            <mxRectangle width="60" height="40" as="alternateBounds" />
          </mxGeometry>
        </mxCell>
        <mxCell id="vef4McNWfD5aa6jTENem-49" value="" style="shape=tableRow;horizontal=0;startSize=0;swimlaneHead=0;swimlaneBody=0;strokeColor=inherit;top=0;left=0;bottom=0;right=0;collapsible=0;dropTarget=0;fillColor=none;points=[[0,0.5],[1,0.5]];portConstraint=eastwest;fontSize=16;" vertex="1" parent="vef4McNWfD5aa6jTENem-42">
          <mxGeometry y="40" width="300" height="40" as="geometry" />
        </mxCell>
        <mxCell id="vef4McNWfD5aa6jTENem-50" value="" style="shape=partialRectangle;html=1;whiteSpace=wrap;connectable=0;strokeColor=inherit;overflow=hidden;fillColor=none;top=0;left=0;bottom=0;right=0;pointerEvents=1;fontSize=16;" vertex="1" parent="vef4McNWfD5aa6jTENem-49">
          <mxGeometry width="60" height="40" as="geometry">
            <mxRectangle width="60" height="40" as="alternateBounds" />
          </mxGeometry>
        </mxCell>
        <mxCell id="vef4McNWfD5aa6jTENem-51" value="" style="shape=partialRectangle;html=1;whiteSpace=wrap;connectable=0;strokeColor=inherit;overflow=hidden;fillColor=none;top=0;left=0;bottom=0;right=0;pointerEvents=1;fontSize=16;" vertex="1" parent="vef4McNWfD5aa6jTENem-49">
          <mxGeometry x="60" width="60" height="40" as="geometry">
            <mxRectangle width="60" height="40" as="alternateBounds" />
          </mxGeometry>
        </mxCell>
        <mxCell id="vef4McNWfD5aa6jTENem-52" value="" style="shape=partialRectangle;html=1;whiteSpace=wrap;connectable=0;strokeColor=inherit;overflow=hidden;fillColor=none;top=0;left=0;bottom=0;right=0;pointerEvents=1;fontSize=16;" vertex="1" parent="vef4McNWfD5aa6jTENem-49">
          <mxGeometry x="120" width="60" height="40" as="geometry">
            <mxRectangle width="60" height="40" as="alternateBounds" />
          </mxGeometry>
        </mxCell>
        <mxCell id="vef4McNWfD5aa6jTENem-53" style="shape=partialRectangle;html=1;whiteSpace=wrap;connectable=0;strokeColor=inherit;overflow=hidden;fillColor=none;top=0;left=0;bottom=0;right=0;pointerEvents=1;fontSize=16;" vertex="1" parent="vef4McNWfD5aa6jTENem-49">
          <mxGeometry x="180" width="60" height="40" as="geometry">
            <mxRectangle width="60" height="40" as="alternateBounds" />
          </mxGeometry>
        </mxCell>
        <mxCell id="vef4McNWfD5aa6jTENem-54" style="shape=partialRectangle;html=1;whiteSpace=wrap;connectable=0;strokeColor=inherit;overflow=hidden;fillColor=none;top=0;left=0;bottom=0;right=0;pointerEvents=1;fontSize=16;" vertex="1" parent="vef4McNWfD5aa6jTENem-49">
          <mxGeometry x="240" width="60" height="40" as="geometry">
            <mxRectangle width="60" height="40" as="alternateBounds" />
          </mxGeometry>
        </mxCell>
        <mxCell id="vef4McNWfD5aa6jTENem-55" value="" style="shape=tableRow;horizontal=0;startSize=0;swimlaneHead=0;swimlaneBody=0;strokeColor=inherit;top=0;left=0;bottom=0;right=0;collapsible=0;dropTarget=0;fillColor=none;points=[[0,0.5],[1,0.5]];portConstraint=eastwest;fontSize=16;" vertex="1" parent="vef4McNWfD5aa6jTENem-42">
          <mxGeometry y="80" width="300" height="40" as="geometry" />
        </mxCell>
        <mxCell id="vef4McNWfD5aa6jTENem-56" value="" style="shape=partialRectangle;html=1;whiteSpace=wrap;connectable=0;strokeColor=inherit;overflow=hidden;fillColor=none;top=0;left=0;bottom=0;right=0;pointerEvents=1;fontSize=16;" vertex="1" parent="vef4McNWfD5aa6jTENem-55">
          <mxGeometry width="60" height="40" as="geometry">
            <mxRectangle width="60" height="40" as="alternateBounds" />
          </mxGeometry>
        </mxCell>
        <mxCell id="vef4McNWfD5aa6jTENem-57" value="" style="shape=partialRectangle;html=1;whiteSpace=wrap;connectable=0;strokeColor=inherit;overflow=hidden;fillColor=none;top=0;left=0;bottom=0;right=0;pointerEvents=1;fontSize=16;" vertex="1" parent="vef4McNWfD5aa6jTENem-55">
          <mxGeometry x="60" width="60" height="40" as="geometry">
            <mxRectangle width="60" height="40" as="alternateBounds" />
          </mxGeometry>
        </mxCell>
        <mxCell id="vef4McNWfD5aa6jTENem-58" value="" style="shape=partialRectangle;html=1;whiteSpace=wrap;connectable=0;strokeColor=inherit;overflow=hidden;fillColor=none;top=0;left=0;bottom=0;right=0;pointerEvents=1;fontSize=16;" vertex="1" parent="vef4McNWfD5aa6jTENem-55">
          <mxGeometry x="120" width="60" height="40" as="geometry">
            <mxRectangle width="60" height="40" as="alternateBounds" />
          </mxGeometry>
        </mxCell>
        <mxCell id="vef4McNWfD5aa6jTENem-59" style="shape=partialRectangle;html=1;whiteSpace=wrap;connectable=0;strokeColor=inherit;overflow=hidden;fillColor=none;top=0;left=0;bottom=0;right=0;pointerEvents=1;fontSize=16;" vertex="1" parent="vef4McNWfD5aa6jTENem-55">
          <mxGeometry x="180" width="60" height="40" as="geometry">
            <mxRectangle width="60" height="40" as="alternateBounds" />
          </mxGeometry>
        </mxCell>
        <mxCell id="vef4McNWfD5aa6jTENem-60" style="shape=partialRectangle;html=1;whiteSpace=wrap;connectable=0;strokeColor=inherit;overflow=hidden;fillColor=none;top=0;left=0;bottom=0;right=0;pointerEvents=1;fontSize=16;" vertex="1" parent="vef4McNWfD5aa6jTENem-55">
          <mxGeometry x="240" width="60" height="40" as="geometry">
            <mxRectangle width="60" height="40" as="alternateBounds" />
          </mxGeometry>
        </mxCell>
        <mxCell id="vef4McNWfD5aa6jTENem-61" style="shape=tableRow;horizontal=0;startSize=0;swimlaneHead=0;swimlaneBody=0;strokeColor=inherit;top=0;left=0;bottom=0;right=0;collapsible=0;dropTarget=0;fillColor=none;points=[[0,0.5],[1,0.5]];portConstraint=eastwest;fontSize=16;" vertex="1" parent="vef4McNWfD5aa6jTENem-42">
          <mxGeometry y="120" width="300" height="40" as="geometry" />
        </mxCell>
        <mxCell id="vef4McNWfD5aa6jTENem-62" style="shape=partialRectangle;html=1;whiteSpace=wrap;connectable=0;strokeColor=inherit;overflow=hidden;fillColor=none;top=0;left=0;bottom=0;right=0;pointerEvents=1;fontSize=16;" vertex="1" parent="vef4McNWfD5aa6jTENem-61">
          <mxGeometry width="60" height="40" as="geometry">
            <mxRectangle width="60" height="40" as="alternateBounds" />
          </mxGeometry>
        </mxCell>
        <mxCell id="vef4McNWfD5aa6jTENem-63" style="shape=partialRectangle;html=1;whiteSpace=wrap;connectable=0;strokeColor=inherit;overflow=hidden;fillColor=none;top=0;left=0;bottom=0;right=0;pointerEvents=1;fontSize=16;" vertex="1" parent="vef4McNWfD5aa6jTENem-61">
          <mxGeometry x="60" width="60" height="40" as="geometry">
            <mxRectangle width="60" height="40" as="alternateBounds" />
          </mxGeometry>
        </mxCell>
        <mxCell id="vef4McNWfD5aa6jTENem-64" style="shape=partialRectangle;html=1;whiteSpace=wrap;connectable=0;strokeColor=inherit;overflow=hidden;fillColor=none;top=0;left=0;bottom=0;right=0;pointerEvents=1;fontSize=16;" vertex="1" parent="vef4McNWfD5aa6jTENem-61">
          <mxGeometry x="120" width="60" height="40" as="geometry">
            <mxRectangle width="60" height="40" as="alternateBounds" />
          </mxGeometry>
        </mxCell>
        <mxCell id="vef4McNWfD5aa6jTENem-65" style="shape=partialRectangle;html=1;whiteSpace=wrap;connectable=0;strokeColor=inherit;overflow=hidden;fillColor=none;top=0;left=0;bottom=0;right=0;pointerEvents=1;fontSize=16;" vertex="1" parent="vef4McNWfD5aa6jTENem-61">
          <mxGeometry x="180" width="60" height="40" as="geometry">
            <mxRectangle width="60" height="40" as="alternateBounds" />
          </mxGeometry>
        </mxCell>
        <mxCell id="vef4McNWfD5aa6jTENem-66" style="shape=partialRectangle;html=1;whiteSpace=wrap;connectable=0;strokeColor=inherit;overflow=hidden;fillColor=none;top=0;left=0;bottom=0;right=0;pointerEvents=1;fontSize=16;" vertex="1" parent="vef4McNWfD5aa6jTENem-61">
          <mxGeometry x="240" width="60" height="40" as="geometry">
            <mxRectangle width="60" height="40" as="alternateBounds" />
          </mxGeometry>
        </mxCell>
        <mxCell id="vef4McNWfD5aa6jTENem-67" style="shape=tableRow;horizontal=0;startSize=0;swimlaneHead=0;swimlaneBody=0;strokeColor=inherit;top=0;left=0;bottom=0;right=0;collapsible=0;dropTarget=0;fillColor=none;points=[[0,0.5],[1,0.5]];portConstraint=eastwest;fontSize=16;" vertex="1" parent="vef4McNWfD5aa6jTENem-42">
          <mxGeometry y="160" width="300" height="40" as="geometry" />
        </mxCell>
        <mxCell id="vef4McNWfD5aa6jTENem-68" style="shape=partialRectangle;html=1;whiteSpace=wrap;connectable=0;strokeColor=inherit;overflow=hidden;fillColor=none;top=0;left=0;bottom=0;right=0;pointerEvents=1;fontSize=16;" vertex="1" parent="vef4McNWfD5aa6jTENem-67">
          <mxGeometry width="60" height="40" as="geometry">
            <mxRectangle width="60" height="40" as="alternateBounds" />
          </mxGeometry>
        </mxCell>
        <mxCell id="vef4McNWfD5aa6jTENem-69" style="shape=partialRectangle;html=1;whiteSpace=wrap;connectable=0;strokeColor=inherit;overflow=hidden;fillColor=none;top=0;left=0;bottom=0;right=0;pointerEvents=1;fontSize=16;" vertex="1" parent="vef4McNWfD5aa6jTENem-67">
          <mxGeometry x="60" width="60" height="40" as="geometry">
            <mxRectangle width="60" height="40" as="alternateBounds" />
          </mxGeometry>
        </mxCell>
        <mxCell id="vef4McNWfD5aa6jTENem-70" style="shape=partialRectangle;html=1;whiteSpace=wrap;connectable=0;strokeColor=inherit;overflow=hidden;fillColor=none;top=0;left=0;bottom=0;right=0;pointerEvents=1;fontSize=16;" vertex="1" parent="vef4McNWfD5aa6jTENem-67">
          <mxGeometry x="120" width="60" height="40" as="geometry">
            <mxRectangle width="60" height="40" as="alternateBounds" />
          </mxGeometry>
        </mxCell>
        <mxCell id="vef4McNWfD5aa6jTENem-71" style="shape=partialRectangle;html=1;whiteSpace=wrap;connectable=0;strokeColor=inherit;overflow=hidden;fillColor=none;top=0;left=0;bottom=0;right=0;pointerEvents=1;fontSize=16;" vertex="1" parent="vef4McNWfD5aa6jTENem-67">
          <mxGeometry x="180" width="60" height="40" as="geometry">
            <mxRectangle width="60" height="40" as="alternateBounds" />
          </mxGeometry>
        </mxCell>
        <mxCell id="vef4McNWfD5aa6jTENem-72" style="shape=partialRectangle;html=1;whiteSpace=wrap;connectable=0;strokeColor=inherit;overflow=hidden;fillColor=none;top=0;left=0;bottom=0;right=0;pointerEvents=1;fontSize=16;" vertex="1" parent="vef4McNWfD5aa6jTENem-67">
          <mxGeometry x="240" width="60" height="40" as="geometry">
            <mxRectangle width="60" height="40" as="alternateBounds" />
          </mxGeometry>
        </mxCell>
        <mxCell id="vef4McNWfD5aa6jTENem-73" style="shape=tableRow;horizontal=0;startSize=0;swimlaneHead=0;swimlaneBody=0;strokeColor=inherit;top=0;left=0;bottom=0;right=0;collapsible=0;dropTarget=0;fillColor=none;points=[[0,0.5],[1,0.5]];portConstraint=eastwest;fontSize=16;" vertex="1" parent="vef4McNWfD5aa6jTENem-42">
          <mxGeometry y="200" width="300" height="40" as="geometry" />
        </mxCell>
        <mxCell id="vef4McNWfD5aa6jTENem-74" style="shape=partialRectangle;html=1;whiteSpace=wrap;connectable=0;strokeColor=inherit;overflow=hidden;fillColor=none;top=0;left=0;bottom=0;right=0;pointerEvents=1;fontSize=16;" vertex="1" parent="vef4McNWfD5aa6jTENem-73">
          <mxGeometry width="60" height="40" as="geometry">
            <mxRectangle width="60" height="40" as="alternateBounds" />
          </mxGeometry>
        </mxCell>
        <mxCell id="vef4McNWfD5aa6jTENem-75" style="shape=partialRectangle;html=1;whiteSpace=wrap;connectable=0;strokeColor=inherit;overflow=hidden;fillColor=none;top=0;left=0;bottom=0;right=0;pointerEvents=1;fontSize=16;" vertex="1" parent="vef4McNWfD5aa6jTENem-73">
          <mxGeometry x="60" width="60" height="40" as="geometry">
            <mxRectangle width="60" height="40" as="alternateBounds" />
          </mxGeometry>
        </mxCell>
        <mxCell id="vef4McNWfD5aa6jTENem-76" style="shape=partialRectangle;html=1;whiteSpace=wrap;connectable=0;strokeColor=inherit;overflow=hidden;fillColor=none;top=0;left=0;bottom=0;right=0;pointerEvents=1;fontSize=16;" vertex="1" parent="vef4McNWfD5aa6jTENem-73">
          <mxGeometry x="120" width="60" height="40" as="geometry">
            <mxRectangle width="60" height="40" as="alternateBounds" />
          </mxGeometry>
        </mxCell>
        <mxCell id="vef4McNWfD5aa6jTENem-77" style="shape=partialRectangle;html=1;whiteSpace=wrap;connectable=0;strokeColor=inherit;overflow=hidden;fillColor=none;top=0;left=0;bottom=0;right=0;pointerEvents=1;fontSize=16;" vertex="1" parent="vef4McNWfD5aa6jTENem-73">
          <mxGeometry x="180" width="60" height="40" as="geometry">
            <mxRectangle width="60" height="40" as="alternateBounds" />
          </mxGeometry>
        </mxCell>
        <mxCell id="vef4McNWfD5aa6jTENem-78" style="shape=partialRectangle;html=1;whiteSpace=wrap;connectable=0;strokeColor=inherit;overflow=hidden;fillColor=none;top=0;left=0;bottom=0;right=0;pointerEvents=1;fontSize=16;" vertex="1" parent="vef4McNWfD5aa6jTENem-73">
          <mxGeometry x="240" width="60" height="40" as="geometry">
            <mxRectangle width="60" height="40" as="alternateBounds" />
          </mxGeometry>
        </mxCell>
        <mxCell id="vef4McNWfD5aa6jTENem-79" value="" style="shape=curlyBracket;whiteSpace=wrap;html=1;rounded=1;labelPosition=left;verticalLabelPosition=middle;align=right;verticalAlign=middle;" vertex="1" parent="1">
          <mxGeometry x="497" y="310" width="20" height="240" as="geometry" />
        </mxCell>
        <mxCell id="vef4McNWfD5aa6jTENem-80" value="&lt;font style=&quot;font-size: 20px;&quot;&gt;batch&lt;/font&gt;" style="text;html=1;align=center;verticalAlign=middle;resizable=0;points=[];autosize=1;strokeColor=none;fillColor=none;" vertex="1" parent="1">
          <mxGeometry x="427" y="410" width="70" height="40" as="geometry" />
        </mxCell>
        <mxCell id="vef4McNWfD5aa6jTENem-81" value="" style="shape=curlyBracket;whiteSpace=wrap;html=1;rounded=1;labelPosition=left;verticalLabelPosition=middle;align=right;verticalAlign=middle;rotation=90;" vertex="1" parent="1">
          <mxGeometry x="667" y="140" width="20" height="300" as="geometry" />
        </mxCell>
        <mxCell id="vef4McNWfD5aa6jTENem-82" value="&lt;font style=&quot;font-size: 19px;&quot;&gt;sample&lt;/font&gt;" style="text;html=1;align=center;verticalAlign=middle;resizable=0;points=[];autosize=1;strokeColor=none;fillColor=none;" vertex="1" parent="1">
          <mxGeometry x="637" y="240" width="80" height="40" as="geometry" />
        </mxCell>
        <mxCell id="vef4McNWfD5aa6jTENem-83" value="" style="endArrow=classic;startArrow=classic;html=1;rounded=0;fillColor=#fff2cc;strokeColor=#d6b656;" edge="1" parent="1">
          <mxGeometry width="50" height="50" relative="1" as="geometry">
            <mxPoint x="380" y="332" as="sourcePoint" />
            <mxPoint x="105" y="332" as="targetPoint" />
          </mxGeometry>
        </mxCell>
        <mxCell id="vef4McNWfD5aa6jTENem-84" value="" style="endArrow=classic;startArrow=classic;html=1;rounded=0;fillColor=#fff2cc;strokeColor=#d6b656;" edge="1" parent="1">
          <mxGeometry width="50" height="50" relative="1" as="geometry">
            <mxPoint x="380" y="372" as="sourcePoint" />
            <mxPoint x="105" y="372" as="targetPoint" />
          </mxGeometry>
        </mxCell>
        <mxCell id="vef4McNWfD5aa6jTENem-85" value="" style="endArrow=classic;startArrow=classic;html=1;rounded=0;fillColor=#fff2cc;strokeColor=#d6b656;" edge="1" parent="1">
          <mxGeometry width="50" height="50" relative="1" as="geometry">
            <mxPoint x="380" y="413" as="sourcePoint" />
            <mxPoint x="105" y="413" as="targetPoint" />
          </mxGeometry>
        </mxCell>
        <mxCell id="vef4McNWfD5aa6jTENem-86" value="" style="endArrow=classic;startArrow=classic;html=1;rounded=0;fillColor=#fff2cc;strokeColor=#d6b656;" edge="1" parent="1">
          <mxGeometry width="50" height="50" relative="1" as="geometry">
            <mxPoint x="380" y="455" as="sourcePoint" />
            <mxPoint x="105" y="455" as="targetPoint" />
          </mxGeometry>
        </mxCell>
        <mxCell id="vef4McNWfD5aa6jTENem-87" value="" style="endArrow=classic;startArrow=classic;html=1;rounded=0;fillColor=#fff2cc;strokeColor=#d6b656;" edge="1" parent="1">
          <mxGeometry width="50" height="50" relative="1" as="geometry">
            <mxPoint x="381" y="494" as="sourcePoint" />
            <mxPoint x="106" y="494" as="targetPoint" />
          </mxGeometry>
        </mxCell>
        <mxCell id="vef4McNWfD5aa6jTENem-88" value="" style="endArrow=classic;startArrow=classic;html=1;rounded=0;fillColor=#fff2cc;strokeColor=#d6b656;" edge="1" parent="1">
          <mxGeometry width="50" height="50" relative="1" as="geometry">
            <mxPoint x="380" y="532" as="sourcePoint" />
            <mxPoint x="105" y="532" as="targetPoint" />
          </mxGeometry>
        </mxCell>
        <mxCell id="vef4McNWfD5aa6jTENem-89" value="" style="endArrow=classic;startArrow=classic;html=1;rounded=0;fillColor=#fff2cc;strokeColor=#d6b656;" edge="1" parent="1">
          <mxGeometry width="50" height="50" relative="1" as="geometry">
            <mxPoint x="558" y="538" as="sourcePoint" />
            <mxPoint x="558" y="326" as="targetPoint" />
          </mxGeometry>
        </mxCell>
        <mxCell id="vef4McNWfD5aa6jTENem-90" value="" style="endArrow=classic;startArrow=classic;html=1;rounded=0;fillColor=#fff2cc;strokeColor=#d6b656;" edge="1" parent="1">
          <mxGeometry width="50" height="50" relative="1" as="geometry">
            <mxPoint x="617" y="540" as="sourcePoint" />
            <mxPoint x="617" y="328" as="targetPoint" />
          </mxGeometry>
        </mxCell>
        <mxCell id="vef4McNWfD5aa6jTENem-91" value="" style="endArrow=classic;startArrow=classic;html=1;rounded=0;fillColor=#fff2cc;strokeColor=#d6b656;" edge="1" parent="1">
          <mxGeometry width="50" height="50" relative="1" as="geometry">
            <mxPoint x="676.5" y="539" as="sourcePoint" />
            <mxPoint x="676.5" y="327" as="targetPoint" />
          </mxGeometry>
        </mxCell>
        <mxCell id="vef4McNWfD5aa6jTENem-92" value="" style="endArrow=classic;startArrow=classic;html=1;rounded=0;fillColor=#fff2cc;strokeColor=#d6b656;" edge="1" parent="1">
          <mxGeometry width="50" height="50" relative="1" as="geometry">
            <mxPoint x="741" y="540" as="sourcePoint" />
            <mxPoint x="741" y="328" as="targetPoint" />
          </mxGeometry>
        </mxCell>
        <mxCell id="vef4McNWfD5aa6jTENem-93" value="" style="endArrow=classic;startArrow=classic;html=1;rounded=0;fillColor=#fff2cc;strokeColor=#d6b656;" edge="1" parent="1">
          <mxGeometry width="50" height="50" relative="1" as="geometry">
            <mxPoint x="799" y="540" as="sourcePoint" />
            <mxPoint x="799" y="328" as="targetPoint" />
          </mxGeometry>
        </mxCell>
        <mxCell id="vef4McNWfD5aa6jTENem-94" value="&lt;font color=&quot;#ff3333&quot; style=&quot;font-size: 21px;&quot;&gt;LayerNorm&lt;/font&gt;" style="text;html=1;strokeColor=none;fillColor=none;align=center;verticalAlign=middle;whiteSpace=wrap;rounded=0;" vertex="1" parent="1">
          <mxGeometry x="200" y="567" width="60" height="30" as="geometry" />
        </mxCell>
        <mxCell id="vef4McNWfD5aa6jTENem-95" value="&lt;font color=&quot;#ff3333&quot; style=&quot;font-size: 21px;&quot;&gt;BatchNorm&lt;/font&gt;" style="text;html=1;strokeColor=none;fillColor=none;align=center;verticalAlign=middle;whiteSpace=wrap;rounded=0;" vertex="1" parent="1">
          <mxGeometry x="618" y="569" width="123" height="30" as="geometry" />
        </mxCell>
        <mxCell id="vef4McNWfD5aa6jTENem-97" value="&lt;font style=&quot;font-size: 23px;&quot;&gt;sublayer&lt;/font&gt;" style="rounded=1;whiteSpace=wrap;html=1;fillColor=#dae8fc;strokeColor=#6c8ebf;" vertex="1" parent="1">
          <mxGeometry x="110" y="-157" width="120" height="60" as="geometry" />
        </mxCell>
        <mxCell id="vef4McNWfD5aa6jTENem-98" value="" style="endArrow=classic;html=1;rounded=0;entryX=0.5;entryY=1;entryDx=0;entryDy=0;strokeWidth=3;" edge="1" parent="1" target="vef4McNWfD5aa6jTENem-97">
          <mxGeometry width="50" height="50" relative="1" as="geometry">
            <mxPoint x="170" y="-47" as="sourcePoint" />
            <mxPoint x="227" y="-190" as="targetPoint" />
          </mxGeometry>
        </mxCell>
        <mxCell id="vef4McNWfD5aa6jTENem-99" value="&lt;b&gt;&lt;font style=&quot;font-size: 22px;&quot;&gt;x&lt;/font&gt;&lt;/b&gt;" style="text;html=1;align=center;verticalAlign=middle;resizable=0;points=[];autosize=1;strokeColor=none;fillColor=none;" vertex="1" parent="1">
          <mxGeometry x="155" y="-53" width="30" height="38" as="geometry" />
        </mxCell>
        <mxCell id="vef4McNWfD5aa6jTENem-100" value="&lt;span style=&quot;font-size: 23px;&quot;&gt;LayerNorm&lt;/span&gt;" style="rounded=1;whiteSpace=wrap;html=1;fillColor=#fff2cc;strokeColor=#d6b656;" vertex="1" parent="1">
          <mxGeometry x="110" y="-237" width="118" height="32" as="geometry" />
        </mxCell>
        <mxCell id="vef4McNWfD5aa6jTENem-102" value="" style="endArrow=classic;html=1;rounded=0;entryX=0.5;entryY=1;entryDx=0;entryDy=0;strokeWidth=3;" edge="1" parent="1">
          <mxGeometry width="50" height="50" relative="1" as="geometry">
            <mxPoint x="168.52" y="-157" as="sourcePoint" />
            <mxPoint x="168.52" y="-207" as="targetPoint" />
          </mxGeometry>
        </mxCell>
        <mxCell id="vef4McNWfD5aa6jTENem-103" value="" style="endArrow=classic;html=1;rounded=0;strokeWidth=3;" edge="1" parent="1">
          <mxGeometry width="50" height="50" relative="1" as="geometry">
            <mxPoint x="169" y="-65" as="sourcePoint" />
            <mxPoint x="167" y="-180" as="targetPoint" />
            <Array as="points">
              <mxPoint x="84" y="-65" />
              <mxPoint x="84" y="-180" />
            </Array>
          </mxGeometry>
        </mxCell>
        <mxCell id="vef4McNWfD5aa6jTENem-104" value="&lt;b&gt;&lt;font style=&quot;font-size: 22px;&quot;&gt;x&lt;/font&gt;&lt;/b&gt;" style="text;html=1;align=center;verticalAlign=middle;resizable=0;points=[];autosize=1;strokeColor=none;fillColor=none;" vertex="1" parent="1">
          <mxGeometry x="55" y="-141" width="30" height="38" as="geometry" />
        </mxCell>
        <mxCell id="vef4McNWfD5aa6jTENem-105" value="" style="endArrow=classic;html=1;rounded=0;strokeWidth=3;" edge="1" parent="1">
          <mxGeometry width="50" height="50" relative="1" as="geometry">
            <mxPoint x="168.52" y="-237" as="sourcePoint" />
            <mxPoint x="169" y="-268" as="targetPoint" />
          </mxGeometry>
        </mxCell>
        <mxCell id="vef4McNWfD5aa6jTENem-106" value="&lt;b&gt;&lt;font style=&quot;font-size: 18px;&quot;&gt;output&lt;/font&gt;&lt;/b&gt;" style="text;html=1;align=center;verticalAlign=middle;resizable=0;points=[];autosize=1;strokeColor=none;fillColor=none;" vertex="1" parent="1">
          <mxGeometry x="133" y="-296" width="74" height="34" as="geometry" />
        </mxCell>
        <mxCell id="vef4McNWfD5aa6jTENem-107" value="q" style="rounded=1;whiteSpace=wrap;html=1;fillColor=#fff2cc;strokeColor=#d6b656;" vertex="1" parent="1">
          <mxGeometry x="34" y="-681" width="76" height="15" as="geometry" />
        </mxCell>
        <mxCell id="vef4McNWfD5aa6jTENem-112" value="q2" style="rounded=1;whiteSpace=wrap;html=1;fillColor=#d5e8d4;strokeColor=#82b366;" vertex="1" parent="1">
          <mxGeometry x="74" y="-717" width="36" height="14" as="geometry" />
        </mxCell>
        <mxCell id="vef4McNWfD5aa6jTENem-113" value="q1" style="rounded=1;whiteSpace=wrap;html=1;fillColor=#dae8fc;strokeColor=#6c8ebf;" vertex="1" parent="1">
          <mxGeometry x="34" y="-717" width="36" height="14" as="geometry" />
        </mxCell>
        <mxCell id="vef4McNWfD5aa6jTENem-114" value="" style="endArrow=classic;html=1;rounded=0;exitX=0.212;exitY=-0.025;exitDx=0;exitDy=0;exitPerimeter=0;strokeWidth=1;" edge="1" parent="1" source="vef4McNWfD5aa6jTENem-107">
          <mxGeometry width="50" height="50" relative="1" as="geometry">
            <mxPoint x="175" y="-655" as="sourcePoint" />
            <mxPoint x="50" y="-704" as="targetPoint" />
          </mxGeometry>
        </mxCell>
        <mxCell id="vef4McNWfD5aa6jTENem-115" value="&lt;span style=&quot;font-size: 7px;&quot;&gt;Wq_1&lt;/span&gt;" style="text;html=1;align=center;verticalAlign=middle;resizable=0;points=[];autosize=1;strokeColor=none;fillColor=none;" vertex="1" parent="1">
          <mxGeometry x="21" y="-703" width="36" height="26" as="geometry" />
        </mxCell>
        <mxCell id="vef4McNWfD5aa6jTENem-116" value="&lt;span style=&quot;font-size: 7px;&quot;&gt;Wq_2&lt;/span&gt;" style="text;html=1;align=center;verticalAlign=middle;resizable=0;points=[];autosize=1;strokeColor=none;fillColor=none;" vertex="1" parent="1">
          <mxGeometry x="85" y="-703" width="36" height="26" as="geometry" />
        </mxCell>
        <mxCell id="vef4McNWfD5aa6jTENem-117" value="" style="endArrow=classic;html=1;rounded=0;entryX=0.5;entryY=1;entryDx=0;entryDy=0;" edge="1" parent="1" target="vef4McNWfD5aa6jTENem-112">
          <mxGeometry width="50" height="50" relative="1" as="geometry">
            <mxPoint x="92" y="-682" as="sourcePoint" />
            <mxPoint x="225" y="-705" as="targetPoint" />
          </mxGeometry>
        </mxCell>
        <mxCell id="vef4McNWfD5aa6jTENem-118" value="k" style="rounded=1;whiteSpace=wrap;html=1;fillColor=#fff2cc;strokeColor=#d6b656;" vertex="1" parent="1">
          <mxGeometry x="146" y="-681" width="76" height="15" as="geometry" />
        </mxCell>
        <mxCell id="vef4McNWfD5aa6jTENem-119" value="k2" style="rounded=1;whiteSpace=wrap;html=1;fillColor=#d5e8d4;strokeColor=#82b366;" vertex="1" parent="1">
          <mxGeometry x="186" y="-717" width="36" height="14" as="geometry" />
        </mxCell>
        <mxCell id="vef4McNWfD5aa6jTENem-120" value="k1" style="rounded=1;whiteSpace=wrap;html=1;fillColor=#dae8fc;strokeColor=#6c8ebf;" vertex="1" parent="1">
          <mxGeometry x="146" y="-717" width="36" height="14" as="geometry" />
        </mxCell>
        <mxCell id="vef4McNWfD5aa6jTENem-121" value="" style="endArrow=classic;html=1;rounded=0;exitX=0.212;exitY=-0.025;exitDx=0;exitDy=0;exitPerimeter=0;strokeWidth=1;" edge="1" parent="1" source="vef4McNWfD5aa6jTENem-118">
          <mxGeometry width="50" height="50" relative="1" as="geometry">
            <mxPoint x="287" y="-655" as="sourcePoint" />
            <mxPoint x="162" y="-704" as="targetPoint" />
          </mxGeometry>
        </mxCell>
        <mxCell id="vef4McNWfD5aa6jTENem-122" value="&lt;span style=&quot;font-size: 7px;&quot;&gt;Wk_1&lt;/span&gt;" style="text;html=1;align=center;verticalAlign=middle;resizable=0;points=[];autosize=1;strokeColor=none;fillColor=none;" vertex="1" parent="1">
          <mxGeometry x="133" y="-703" width="36" height="26" as="geometry" />
        </mxCell>
        <mxCell id="vef4McNWfD5aa6jTENem-123" value="&lt;span style=&quot;font-size: 7px;&quot;&gt;Wk_2&lt;/span&gt;" style="text;html=1;align=center;verticalAlign=middle;resizable=0;points=[];autosize=1;strokeColor=none;fillColor=none;" vertex="1" parent="1">
          <mxGeometry x="197" y="-703" width="36" height="26" as="geometry" />
        </mxCell>
        <mxCell id="vef4McNWfD5aa6jTENem-124" value="" style="endArrow=classic;html=1;rounded=0;entryX=0.5;entryY=1;entryDx=0;entryDy=0;" edge="1" parent="1" target="vef4McNWfD5aa6jTENem-119">
          <mxGeometry width="50" height="50" relative="1" as="geometry">
            <mxPoint x="204" y="-682" as="sourcePoint" />
            <mxPoint x="337" y="-705" as="targetPoint" />
          </mxGeometry>
        </mxCell>
        <mxCell id="vef4McNWfD5aa6jTENem-125" value="v" style="rounded=1;whiteSpace=wrap;html=1;fillColor=#fff2cc;strokeColor=#d6b656;" vertex="1" parent="1">
          <mxGeometry x="253" y="-681" width="76" height="15" as="geometry" />
        </mxCell>
        <mxCell id="vef4McNWfD5aa6jTENem-126" value="v2" style="rounded=1;whiteSpace=wrap;html=1;fillColor=#d5e8d4;strokeColor=#82b366;" vertex="1" parent="1">
          <mxGeometry x="293" y="-717" width="36" height="14" as="geometry" />
        </mxCell>
        <mxCell id="vef4McNWfD5aa6jTENem-127" value="v1" style="rounded=1;whiteSpace=wrap;html=1;fillColor=#dae8fc;strokeColor=#6c8ebf;" vertex="1" parent="1">
          <mxGeometry x="253" y="-717" width="36" height="14" as="geometry" />
        </mxCell>
        <mxCell id="vef4McNWfD5aa6jTENem-128" value="" style="endArrow=classic;html=1;rounded=0;exitX=0.212;exitY=-0.025;exitDx=0;exitDy=0;exitPerimeter=0;strokeWidth=1;" edge="1" parent="1" source="vef4McNWfD5aa6jTENem-125">
          <mxGeometry width="50" height="50" relative="1" as="geometry">
            <mxPoint x="394" y="-655" as="sourcePoint" />
            <mxPoint x="269" y="-704" as="targetPoint" />
          </mxGeometry>
        </mxCell>
        <mxCell id="vef4McNWfD5aa6jTENem-129" value="&lt;span style=&quot;font-size: 7px;&quot;&gt;Wv_2&lt;/span&gt;" style="text;html=1;align=center;verticalAlign=middle;resizable=0;points=[];autosize=1;strokeColor=none;fillColor=none;" vertex="1" parent="1">
          <mxGeometry x="304" y="-703" width="36" height="26" as="geometry" />
        </mxCell>
        <mxCell id="vef4McNWfD5aa6jTENem-130" value="" style="endArrow=classic;html=1;rounded=0;entryX=0.5;entryY=1;entryDx=0;entryDy=0;" edge="1" parent="1" target="vef4McNWfD5aa6jTENem-126">
          <mxGeometry width="50" height="50" relative="1" as="geometry">
            <mxPoint x="311" y="-682" as="sourcePoint" />
            <mxPoint x="444" y="-705" as="targetPoint" />
          </mxGeometry>
        </mxCell>
        <mxCell id="vef4McNWfD5aa6jTENem-131" value="&lt;span style=&quot;font-size: 7px;&quot;&gt;Wv_1&lt;/span&gt;" style="text;html=1;align=center;verticalAlign=middle;resizable=0;points=[];autosize=1;strokeColor=none;fillColor=none;" vertex="1" parent="1">
          <mxGeometry x="240" y="-703" width="36" height="26" as="geometry" />
        </mxCell>
        <mxCell id="vef4McNWfD5aa6jTENem-132" value="k" style="rounded=1;whiteSpace=wrap;html=1;fillColor=#fff2cc;strokeColor=#d6b656;" vertex="1" parent="1">
          <mxGeometry x="146" y="-607" width="76" height="15" as="geometry" />
        </mxCell>
        <mxCell id="vef4McNWfD5aa6jTENem-133" value="k2" style="rounded=1;whiteSpace=wrap;html=1;fillColor=#d5e8d4;strokeColor=#82b366;" vertex="1" parent="1">
          <mxGeometry x="186" y="-643" width="36" height="14" as="geometry" />
        </mxCell>
        <mxCell id="vef4McNWfD5aa6jTENem-134" value="k1" style="rounded=1;whiteSpace=wrap;html=1;fillColor=#dae8fc;strokeColor=#6c8ebf;" vertex="1" parent="1">
          <mxGeometry x="146" y="-643" width="36" height="14" as="geometry" />
        </mxCell>
        <mxCell id="vef4McNWfD5aa6jTENem-135" value="" style="endArrow=classic;html=1;rounded=0;exitX=0.212;exitY=-0.025;exitDx=0;exitDy=0;exitPerimeter=0;strokeWidth=1;" edge="1" parent="1" source="vef4McNWfD5aa6jTENem-132">
          <mxGeometry width="50" height="50" relative="1" as="geometry">
            <mxPoint x="287" y="-581" as="sourcePoint" />
            <mxPoint x="162" y="-630" as="targetPoint" />
          </mxGeometry>
        </mxCell>
        <mxCell id="vef4McNWfD5aa6jTENem-136" value="&lt;span style=&quot;font-size: 7px;&quot;&gt;Wk_2&lt;/span&gt;" style="text;html=1;align=center;verticalAlign=middle;resizable=0;points=[];autosize=1;strokeColor=none;fillColor=none;" vertex="1" parent="1">
          <mxGeometry x="197" y="-629" width="36" height="26" as="geometry" />
        </mxCell>
        <mxCell id="vef4McNWfD5aa6jTENem-137" value="" style="endArrow=classic;html=1;rounded=0;entryX=0.5;entryY=1;entryDx=0;entryDy=0;" edge="1" parent="1" target="vef4McNWfD5aa6jTENem-133">
          <mxGeometry width="50" height="50" relative="1" as="geometry">
            <mxPoint x="204" y="-608" as="sourcePoint" />
            <mxPoint x="337" y="-631" as="targetPoint" />
          </mxGeometry>
        </mxCell>
        <mxCell id="vef4McNWfD5aa6jTENem-138" value="v" style="rounded=1;whiteSpace=wrap;html=1;fillColor=#fff2cc;strokeColor=#d6b656;" vertex="1" parent="1">
          <mxGeometry x="253" y="-607" width="76" height="15" as="geometry" />
        </mxCell>
        <mxCell id="vef4McNWfD5aa6jTENem-139" value="v2" style="rounded=1;whiteSpace=wrap;html=1;fillColor=#d5e8d4;strokeColor=#82b366;" vertex="1" parent="1">
          <mxGeometry x="293" y="-643" width="36" height="14" as="geometry" />
        </mxCell>
        <mxCell id="vef4McNWfD5aa6jTENem-140" value="v1" style="rounded=1;whiteSpace=wrap;html=1;fillColor=#dae8fc;strokeColor=#6c8ebf;" vertex="1" parent="1">
          <mxGeometry x="253" y="-643" width="36" height="14" as="geometry" />
        </mxCell>
        <mxCell id="vef4McNWfD5aa6jTENem-141" value="" style="endArrow=classic;html=1;rounded=0;exitX=0.212;exitY=-0.025;exitDx=0;exitDy=0;exitPerimeter=0;strokeWidth=1;" edge="1" parent="1" source="vef4McNWfD5aa6jTENem-138">
          <mxGeometry width="50" height="50" relative="1" as="geometry">
            <mxPoint x="394" y="-581" as="sourcePoint" />
            <mxPoint x="269" y="-630" as="targetPoint" />
          </mxGeometry>
        </mxCell>
        <mxCell id="vef4McNWfD5aa6jTENem-142" value="" style="endArrow=classic;html=1;rounded=0;entryX=0.5;entryY=1;entryDx=0;entryDy=0;" edge="1" parent="1" target="vef4McNWfD5aa6jTENem-139">
          <mxGeometry width="50" height="50" relative="1" as="geometry">
            <mxPoint x="311" y="-608" as="sourcePoint" />
            <mxPoint x="444" y="-631" as="targetPoint" />
          </mxGeometry>
        </mxCell>
        <mxCell id="vef4McNWfD5aa6jTENem-143" value="&lt;span style=&quot;font-size: 7px;&quot;&gt;Wv_1&lt;/span&gt;" style="text;html=1;align=center;verticalAlign=middle;resizable=0;points=[];autosize=1;strokeColor=none;fillColor=none;" vertex="1" parent="1">
          <mxGeometry x="240" y="-629" width="36" height="26" as="geometry" />
        </mxCell>
        <mxCell id="vef4McNWfD5aa6jTENem-144" value="k" style="rounded=1;whiteSpace=wrap;html=1;fillColor=#fff2cc;strokeColor=#d6b656;" vertex="1" parent="1">
          <mxGeometry x="146" y="-532" width="76" height="15" as="geometry" />
        </mxCell>
        <mxCell id="vef4McNWfD5aa6jTENem-145" value="k2" style="rounded=1;whiteSpace=wrap;html=1;fillColor=#d5e8d4;strokeColor=#82b366;" vertex="1" parent="1">
          <mxGeometry x="186" y="-568" width="36" height="14" as="geometry" />
        </mxCell>
        <mxCell id="vef4McNWfD5aa6jTENem-146" value="k1" style="rounded=1;whiteSpace=wrap;html=1;fillColor=#dae8fc;strokeColor=#6c8ebf;" vertex="1" parent="1">
          <mxGeometry x="146" y="-568" width="36" height="14" as="geometry" />
        </mxCell>
        <mxCell id="vef4McNWfD5aa6jTENem-147" value="" style="endArrow=classic;html=1;rounded=0;exitX=0.212;exitY=-0.025;exitDx=0;exitDy=0;exitPerimeter=0;strokeWidth=1;" edge="1" parent="1" source="vef4McNWfD5aa6jTENem-144">
          <mxGeometry width="50" height="50" relative="1" as="geometry">
            <mxPoint x="287" y="-506" as="sourcePoint" />
            <mxPoint x="162" y="-555" as="targetPoint" />
          </mxGeometry>
        </mxCell>
        <mxCell id="vef4McNWfD5aa6jTENem-148" value="&lt;span style=&quot;font-size: 7px;&quot;&gt;Wk_2&lt;/span&gt;" style="text;html=1;align=center;verticalAlign=middle;resizable=0;points=[];autosize=1;strokeColor=none;fillColor=none;" vertex="1" parent="1">
          <mxGeometry x="197" y="-554" width="36" height="26" as="geometry" />
        </mxCell>
        <mxCell id="vef4McNWfD5aa6jTENem-149" value="" style="endArrow=classic;html=1;rounded=0;entryX=0.5;entryY=1;entryDx=0;entryDy=0;" edge="1" parent="1" target="vef4McNWfD5aa6jTENem-145">
          <mxGeometry width="50" height="50" relative="1" as="geometry">
            <mxPoint x="204" y="-533" as="sourcePoint" />
            <mxPoint x="337" y="-556" as="targetPoint" />
          </mxGeometry>
        </mxCell>
        <mxCell id="vef4McNWfD5aa6jTENem-150" value="v" style="rounded=1;whiteSpace=wrap;html=1;fillColor=#fff2cc;strokeColor=#d6b656;" vertex="1" parent="1">
          <mxGeometry x="253" y="-532" width="76" height="15" as="geometry" />
        </mxCell>
        <mxCell id="vef4McNWfD5aa6jTENem-151" value="v2" style="rounded=1;whiteSpace=wrap;html=1;fillColor=#d5e8d4;strokeColor=#82b366;" vertex="1" parent="1">
          <mxGeometry x="293" y="-568" width="36" height="14" as="geometry" />
        </mxCell>
        <mxCell id="vef4McNWfD5aa6jTENem-152" value="v1" style="rounded=1;whiteSpace=wrap;html=1;fillColor=#dae8fc;strokeColor=#6c8ebf;" vertex="1" parent="1">
          <mxGeometry x="253" y="-568" width="36" height="14" as="geometry" />
        </mxCell>
        <mxCell id="vef4McNWfD5aa6jTENem-153" value="" style="endArrow=classic;html=1;rounded=0;exitX=0.212;exitY=-0.025;exitDx=0;exitDy=0;exitPerimeter=0;strokeWidth=1;" edge="1" parent="1" source="vef4McNWfD5aa6jTENem-150">
          <mxGeometry width="50" height="50" relative="1" as="geometry">
            <mxPoint x="394" y="-506" as="sourcePoint" />
            <mxPoint x="269" y="-555" as="targetPoint" />
          </mxGeometry>
        </mxCell>
        <mxCell id="vef4McNWfD5aa6jTENem-154" value="" style="endArrow=classic;html=1;rounded=0;entryX=0.5;entryY=1;entryDx=0;entryDy=0;" edge="1" parent="1" target="vef4McNWfD5aa6jTENem-151">
          <mxGeometry width="50" height="50" relative="1" as="geometry">
            <mxPoint x="311" y="-533" as="sourcePoint" />
            <mxPoint x="444" y="-556" as="targetPoint" />
          </mxGeometry>
        </mxCell>
        <mxCell id="vef4McNWfD5aa6jTENem-155" value="&lt;span style=&quot;font-size: 7px;&quot;&gt;Wv_1&lt;/span&gt;" style="text;html=1;align=center;verticalAlign=middle;resizable=0;points=[];autosize=1;strokeColor=none;fillColor=none;" vertex="1" parent="1">
          <mxGeometry x="240" y="-554" width="36" height="26" as="geometry" />
        </mxCell>
        <mxCell id="vef4McNWfD5aa6jTENem-156" value=".&lt;br&gt;.&lt;br&gt;." style="text;html=1;align=center;verticalAlign=middle;resizable=0;points=[];autosize=1;strokeColor=none;fillColor=none;" vertex="1" parent="1">
          <mxGeometry x="226" y="-527" width="21" height="55" as="geometry" />
        </mxCell>
        <mxCell id="vef4McNWfD5aa6jTENem-157" value="&lt;span style=&quot;font-size: 7px;&quot;&gt;Wv_2&lt;/span&gt;" style="text;html=1;align=center;verticalAlign=middle;resizable=0;points=[];autosize=1;strokeColor=none;fillColor=none;" vertex="1" parent="1">
          <mxGeometry x="304" y="-629" width="36" height="26" as="geometry" />
        </mxCell>
        <mxCell id="vef4McNWfD5aa6jTENem-158" value="&lt;span style=&quot;font-size: 7px;&quot;&gt;Wv_2&lt;/span&gt;" style="text;html=1;align=center;verticalAlign=middle;resizable=0;points=[];autosize=1;strokeColor=none;fillColor=none;" vertex="1" parent="1">
          <mxGeometry x="304" y="-554" width="36" height="26" as="geometry" />
        </mxCell>
        <mxCell id="vef4McNWfD5aa6jTENem-159" value="&lt;span style=&quot;font-size: 7px;&quot;&gt;Wk_1&lt;/span&gt;" style="text;html=1;align=center;verticalAlign=middle;resizable=0;points=[];autosize=1;strokeColor=none;fillColor=none;" vertex="1" parent="1">
          <mxGeometry x="133" y="-629" width="36" height="26" as="geometry" />
        </mxCell>
        <mxCell id="vef4McNWfD5aa6jTENem-160" value="&lt;span style=&quot;font-size: 7px;&quot;&gt;Wk_1&lt;/span&gt;" style="text;html=1;align=center;verticalAlign=middle;resizable=0;points=[];autosize=1;strokeColor=none;fillColor=none;" vertex="1" parent="1">
          <mxGeometry x="133" y="-554" width="36" height="26" as="geometry" />
        </mxCell>
        <mxCell id="vef4McNWfD5aa6jTENem-162" value="" style="html=1;shape=mxgraph.basic.isocube;isoAngle=15;fillColor=#dae8fc;strokeColor=#6c8ebf;" vertex="1" parent="1">
          <mxGeometry x="57.5" y="694" width="36" height="40" as="geometry" />
        </mxCell>
        <mxCell id="vef4McNWfD5aa6jTENem-163" value="" style="html=1;shape=mxgraph.basic.isocube;isoAngle=15;fillColor=#dae8fc;strokeColor=#6c8ebf;" vertex="1" parent="1">
          <mxGeometry x="39.5" y="703" width="36" height="40" as="geometry" />
        </mxCell>
        <mxCell id="vef4McNWfD5aa6jTENem-164" value="" style="html=1;shape=mxgraph.basic.isocube;isoAngle=15;fillColor=#f8cecc;strokeColor=#b85450;" vertex="1" parent="1">
          <mxGeometry x="21.5" y="712" width="36" height="40" as="geometry" />
        </mxCell>
        <mxCell id="vef4McNWfD5aa6jTENem-165" value="" style="html=1;shape=mxgraph.basic.isocube;isoAngle=15;fillColor=#dae8fc;strokeColor=#6c8ebf;" vertex="1" parent="1">
          <mxGeometry x="75.5" y="703" width="36" height="40" as="geometry" />
        </mxCell>
        <mxCell id="vef4McNWfD5aa6jTENem-166" value="" style="html=1;shape=mxgraph.basic.isocube;isoAngle=15;fillColor=#dae8fc;strokeColor=#6c8ebf;" vertex="1" parent="1">
          <mxGeometry x="57.5" y="712" width="36" height="40" as="geometry" />
        </mxCell>
        <mxCell id="vef4McNWfD5aa6jTENem-167" value="" style="html=1;shape=mxgraph.basic.isocube;isoAngle=15;fillColor=#f8cecc;strokeColor=#b85450;" vertex="1" parent="1">
          <mxGeometry x="39.5" y="721" width="36" height="40" as="geometry" />
        </mxCell>
        <mxCell id="vef4McNWfD5aa6jTENem-168" value="" style="html=1;shape=mxgraph.basic.isocube;isoAngle=15;fillColor=#dae8fc;strokeColor=#6c8ebf;" vertex="1" parent="1">
          <mxGeometry x="93.5" y="712" width="36" height="40" as="geometry" />
        </mxCell>
        <mxCell id="vef4McNWfD5aa6jTENem-169" value="" style="html=1;shape=mxgraph.basic.isocube;isoAngle=15;fillColor=#dae8fc;strokeColor=#6c8ebf;" vertex="1" parent="1">
          <mxGeometry x="75.5" y="721" width="36" height="40" as="geometry" />
        </mxCell>
        <mxCell id="vef4McNWfD5aa6jTENem-170" value="" style="html=1;shape=mxgraph.basic.isocube;isoAngle=15;fillColor=#f8cecc;strokeColor=#b85450;" vertex="1" parent="1">
          <mxGeometry x="57.5" y="730" width="36" height="40" as="geometry" />
        </mxCell>
        <mxCell id="vef4McNWfD5aa6jTENem-171" value="" style="html=1;shape=mxgraph.basic.isocube;isoAngle=15;fillColor=#dae8fc;strokeColor=#6c8ebf;" vertex="1" parent="1">
          <mxGeometry x="57.5" y="671" width="36" height="40" as="geometry" />
        </mxCell>
        <mxCell id="vef4McNWfD5aa6jTENem-172" value="" style="html=1;shape=mxgraph.basic.isocube;isoAngle=15;fillColor=#dae8fc;strokeColor=#6c8ebf;" vertex="1" parent="1">
          <mxGeometry x="39.5" y="680" width="36" height="40" as="geometry" />
        </mxCell>
        <mxCell id="vef4McNWfD5aa6jTENem-173" value="" style="html=1;shape=mxgraph.basic.isocube;isoAngle=15;fillColor=#f8cecc;strokeColor=#b85450;" vertex="1" parent="1">
          <mxGeometry x="21.5" y="689" width="36" height="40" as="geometry" />
        </mxCell>
        <mxCell id="vef4McNWfD5aa6jTENem-174" value="" style="html=1;shape=mxgraph.basic.isocube;isoAngle=15;fillColor=#dae8fc;strokeColor=#6c8ebf;" vertex="1" parent="1">
          <mxGeometry x="75.5" y="680" width="36" height="40" as="geometry" />
        </mxCell>
        <mxCell id="vef4McNWfD5aa6jTENem-175" value="" style="html=1;shape=mxgraph.basic.isocube;isoAngle=15;fillColor=#dae8fc;strokeColor=#6c8ebf;" vertex="1" parent="1">
          <mxGeometry x="57.5" y="689" width="36" height="40" as="geometry" />
        </mxCell>
        <mxCell id="vef4McNWfD5aa6jTENem-176" value="" style="html=1;shape=mxgraph.basic.isocube;isoAngle=15;fillColor=#f8cecc;strokeColor=#b85450;" vertex="1" parent="1">
          <mxGeometry x="39.5" y="698" width="36" height="40" as="geometry" />
        </mxCell>
        <mxCell id="vef4McNWfD5aa6jTENem-177" value="" style="html=1;shape=mxgraph.basic.isocube;isoAngle=15;fillColor=#dae8fc;strokeColor=#6c8ebf;" vertex="1" parent="1">
          <mxGeometry x="93.5" y="689" width="36" height="40" as="geometry" />
        </mxCell>
        <mxCell id="vef4McNWfD5aa6jTENem-178" value="" style="html=1;shape=mxgraph.basic.isocube;isoAngle=15;fillColor=#dae8fc;strokeColor=#6c8ebf;" vertex="1" parent="1">
          <mxGeometry x="75.5" y="698" width="36" height="40" as="geometry" />
        </mxCell>
        <mxCell id="vef4McNWfD5aa6jTENem-179" value="" style="html=1;shape=mxgraph.basic.isocube;isoAngle=15;fillColor=#f8cecc;strokeColor=#b85450;" vertex="1" parent="1">
          <mxGeometry x="57.5" y="707" width="36" height="40" as="geometry" />
        </mxCell>
        <mxCell id="vef4McNWfD5aa6jTENem-180" value="" style="html=1;shape=mxgraph.basic.isocube;isoAngle=15;fillColor=#dae8fc;strokeColor=#6c8ebf;" vertex="1" parent="1">
          <mxGeometry x="57.5" y="648" width="36" height="40" as="geometry" />
        </mxCell>
        <mxCell id="vef4McNWfD5aa6jTENem-181" value="" style="html=1;shape=mxgraph.basic.isocube;isoAngle=15;fillColor=#dae8fc;strokeColor=#6c8ebf;" vertex="1" parent="1">
          <mxGeometry x="39.5" y="657" width="36" height="40" as="geometry" />
        </mxCell>
        <mxCell id="vef4McNWfD5aa6jTENem-182" value="" style="html=1;shape=mxgraph.basic.isocube;isoAngle=15;fillColor=#f8cecc;strokeColor=#b85450;" vertex="1" parent="1">
          <mxGeometry x="21.5" y="666" width="36" height="40" as="geometry" />
        </mxCell>
        <mxCell id="vef4McNWfD5aa6jTENem-183" value="" style="html=1;shape=mxgraph.basic.isocube;isoAngle=15;fillColor=#dae8fc;strokeColor=#6c8ebf;" vertex="1" parent="1">
          <mxGeometry x="75.5" y="657" width="36" height="40" as="geometry" />
        </mxCell>
        <mxCell id="vef4McNWfD5aa6jTENem-184" value="" style="html=1;shape=mxgraph.basic.isocube;isoAngle=15;fillColor=#dae8fc;strokeColor=#6c8ebf;" vertex="1" parent="1">
          <mxGeometry x="57.5" y="666" width="36" height="40" as="geometry" />
        </mxCell>
        <mxCell id="vef4McNWfD5aa6jTENem-185" value="" style="html=1;shape=mxgraph.basic.isocube;isoAngle=15;fillColor=#f8cecc;strokeColor=#b85450;" vertex="1" parent="1">
          <mxGeometry x="39.5" y="675" width="36" height="40" as="geometry" />
        </mxCell>
        <mxCell id="vef4McNWfD5aa6jTENem-186" value="" style="html=1;shape=mxgraph.basic.isocube;isoAngle=15;fillColor=#dae8fc;strokeColor=#6c8ebf;" vertex="1" parent="1">
          <mxGeometry x="93.5" y="666" width="36" height="40" as="geometry" />
        </mxCell>
        <mxCell id="vef4McNWfD5aa6jTENem-187" value="" style="html=1;shape=mxgraph.basic.isocube;isoAngle=15;fillColor=#dae8fc;strokeColor=#6c8ebf;" vertex="1" parent="1">
          <mxGeometry x="75.5" y="675" width="36" height="40" as="geometry" />
        </mxCell>
        <mxCell id="vef4McNWfD5aa6jTENem-188" value="" style="html=1;shape=mxgraph.basic.isocube;isoAngle=15;fillColor=#f8cecc;strokeColor=#b85450;" vertex="1" parent="1">
          <mxGeometry x="57.5" y="684" width="36" height="40" as="geometry" />
        </mxCell>
        <mxCell id="vef4McNWfD5aa6jTENem-189" value="b" style="text;html=1;align=center;verticalAlign=middle;resizable=0;points=[];autosize=1;strokeColor=none;fillColor=none;" vertex="1" parent="1">
          <mxGeometry x="94.5" y="752" width="25" height="26" as="geometry" />
        </mxCell>
        <mxCell id="vef4McNWfD5aa6jTENem-190" value="N_qkv" style="text;html=1;align=center;verticalAlign=middle;resizable=0;points=[];autosize=1;strokeColor=none;fillColor=none;" vertex="1" parent="1">
          <mxGeometry x="-25.5" y="693" width="52" height="26" as="geometry" />
        </mxCell>
        <mxCell id="vef4McNWfD5aa6jTENem-191" value="d_model" style="text;html=1;align=center;verticalAlign=middle;resizable=0;points=[];autosize=1;strokeColor=none;fillColor=none;rotation=30;" vertex="1" parent="1">
          <mxGeometry x="7.5" y="750" width="64" height="26" as="geometry" />
        </mxCell>
        <mxCell id="vef4McNWfD5aa6jTENem-192" value="Q K V&lt;br&gt;&lt;font style=&quot;font-size: 8px;&quot;&gt;(b,N_qkv,d_model)&lt;/font&gt;" style="text;html=1;align=center;verticalAlign=middle;resizable=0;points=[];autosize=1;strokeColor=none;fillColor=none;" vertex="1" parent="1">
          <mxGeometry x="30" y="609" width="85" height="41" as="geometry" />
        </mxCell>
        <mxCell id="vef4McNWfD5aa6jTENem-193" value="" style="html=1;shape=mxgraph.basic.isocube;isoAngle=15;fillColor=#dae8fc;strokeColor=#6c8ebf;" vertex="1" parent="1">
          <mxGeometry x="280" y="708" width="36" height="40" as="geometry" />
        </mxCell>
        <mxCell id="vef4McNWfD5aa6jTENem-194" value="" style="html=1;shape=mxgraph.basic.isocube;isoAngle=15;fillColor=#dae8fc;strokeColor=#6c8ebf;" vertex="1" parent="1">
          <mxGeometry x="262" y="717" width="36" height="40" as="geometry" />
        </mxCell>
        <mxCell id="vef4McNWfD5aa6jTENem-195" value="" style="html=1;shape=mxgraph.basic.isocube;isoAngle=15;fillColor=#f8cecc;strokeColor=#b85450;" vertex="1" parent="1">
          <mxGeometry x="244" y="726" width="36" height="40" as="geometry" />
        </mxCell>
        <mxCell id="vef4McNWfD5aa6jTENem-196" value="" style="html=1;shape=mxgraph.basic.isocube;isoAngle=15;fillColor=#dae8fc;strokeColor=#6c8ebf;" vertex="1" parent="1">
          <mxGeometry x="298" y="717" width="36" height="40" as="geometry" />
        </mxCell>
        <mxCell id="vef4McNWfD5aa6jTENem-197" value="" style="html=1;shape=mxgraph.basic.isocube;isoAngle=15;fillColor=#dae8fc;strokeColor=#6c8ebf;" vertex="1" parent="1">
          <mxGeometry x="280" y="726" width="36" height="40" as="geometry" />
        </mxCell>
        <mxCell id="vef4McNWfD5aa6jTENem-198" value="" style="html=1;shape=mxgraph.basic.isocube;isoAngle=15;fillColor=#f8cecc;strokeColor=#b85450;" vertex="1" parent="1">
          <mxGeometry x="262" y="735" width="36" height="40" as="geometry" />
        </mxCell>
        <mxCell id="vef4McNWfD5aa6jTENem-199" value="" style="html=1;shape=mxgraph.basic.isocube;isoAngle=15;fillColor=#e1d5e7;strokeColor=#9673a6;" vertex="1" parent="1">
          <mxGeometry x="316" y="726" width="36" height="40" as="geometry" />
        </mxCell>
        <mxCell id="vef4McNWfD5aa6jTENem-200" value="" style="html=1;shape=mxgraph.basic.isocube;isoAngle=15;fillColor=#fff2cc;strokeColor=#d6b656;" vertex="1" parent="1">
          <mxGeometry x="298" y="735" width="36" height="40" as="geometry" />
        </mxCell>
        <mxCell id="vef4McNWfD5aa6jTENem-201" value="" style="html=1;shape=mxgraph.basic.isocube;isoAngle=15;fillColor=#f8cecc;strokeColor=#b85450;" vertex="1" parent="1">
          <mxGeometry x="280" y="744" width="36" height="40" as="geometry" />
        </mxCell>
        <mxCell id="vef4McNWfD5aa6jTENem-202" value="" style="html=1;shape=mxgraph.basic.isocube;isoAngle=15;fillColor=#dae8fc;strokeColor=#6c8ebf;" vertex="1" parent="1">
          <mxGeometry x="280" y="685" width="36" height="40" as="geometry" />
        </mxCell>
        <mxCell id="vef4McNWfD5aa6jTENem-203" value="" style="html=1;shape=mxgraph.basic.isocube;isoAngle=15;fillColor=#dae8fc;strokeColor=#6c8ebf;" vertex="1" parent="1">
          <mxGeometry x="262" y="694" width="36" height="40" as="geometry" />
        </mxCell>
        <mxCell id="vef4McNWfD5aa6jTENem-204" value="" style="html=1;shape=mxgraph.basic.isocube;isoAngle=15;fillColor=#f8cecc;strokeColor=#b85450;" vertex="1" parent="1">
          <mxGeometry x="244" y="703" width="36" height="40" as="geometry" />
        </mxCell>
        <mxCell id="vef4McNWfD5aa6jTENem-205" value="" style="html=1;shape=mxgraph.basic.isocube;isoAngle=15;fillColor=#dae8fc;strokeColor=#6c8ebf;" vertex="1" parent="1">
          <mxGeometry x="298" y="694" width="36" height="40" as="geometry" />
        </mxCell>
        <mxCell id="vef4McNWfD5aa6jTENem-206" value="" style="html=1;shape=mxgraph.basic.isocube;isoAngle=15;fillColor=#dae8fc;strokeColor=#6c8ebf;" vertex="1" parent="1">
          <mxGeometry x="280" y="703" width="36" height="40" as="geometry" />
        </mxCell>
        <mxCell id="vef4McNWfD5aa6jTENem-207" value="" style="html=1;shape=mxgraph.basic.isocube;isoAngle=15;fillColor=#f8cecc;strokeColor=#b85450;" vertex="1" parent="1">
          <mxGeometry x="262" y="712" width="36" height="40" as="geometry" />
        </mxCell>
        <mxCell id="vef4McNWfD5aa6jTENem-208" value="" style="html=1;shape=mxgraph.basic.isocube;isoAngle=15;fillColor=#e1d5e7;strokeColor=#9673a6;" vertex="1" parent="1">
          <mxGeometry x="316" y="703" width="36" height="40" as="geometry" />
        </mxCell>
        <mxCell id="vef4McNWfD5aa6jTENem-209" value="" style="html=1;shape=mxgraph.basic.isocube;isoAngle=15;fillColor=#fff2cc;strokeColor=#d6b656;" vertex="1" parent="1">
          <mxGeometry x="298" y="712" width="36" height="40" as="geometry" />
        </mxCell>
        <mxCell id="vef4McNWfD5aa6jTENem-210" value="" style="html=1;shape=mxgraph.basic.isocube;isoAngle=15;fillColor=#f8cecc;strokeColor=#b85450;" vertex="1" parent="1">
          <mxGeometry x="280" y="721" width="36" height="40" as="geometry" />
        </mxCell>
        <mxCell id="vef4McNWfD5aa6jTENem-211" value="" style="html=1;shape=mxgraph.basic.isocube;isoAngle=15;fillColor=#e1d5e7;strokeColor=#9673a6;" vertex="1" parent="1">
          <mxGeometry x="280" y="662" width="36" height="40" as="geometry" />
        </mxCell>
        <mxCell id="vef4McNWfD5aa6jTENem-212" value="" style="html=1;shape=mxgraph.basic.isocube;isoAngle=15;fillColor=#fff2cc;strokeColor=#d6b656;" vertex="1" parent="1">
          <mxGeometry x="262" y="671" width="36" height="40" as="geometry" />
        </mxCell>
        <mxCell id="vef4McNWfD5aa6jTENem-213" value="" style="html=1;shape=mxgraph.basic.isocube;isoAngle=15;fillColor=#f8cecc;strokeColor=#b85450;" vertex="1" parent="1">
          <mxGeometry x="244" y="680" width="36" height="40" as="geometry" />
        </mxCell>
        <mxCell id="vef4McNWfD5aa6jTENem-214" value="" style="html=1;shape=mxgraph.basic.isocube;isoAngle=15;fillColor=#e1d5e7;strokeColor=#9673a6;" vertex="1" parent="1">
          <mxGeometry x="298" y="671" width="36" height="40" as="geometry" />
        </mxCell>
        <mxCell id="vef4McNWfD5aa6jTENem-215" value="" style="html=1;shape=mxgraph.basic.isocube;isoAngle=15;fillColor=#fff2cc;strokeColor=#d6b656;" vertex="1" parent="1">
          <mxGeometry x="280" y="680" width="36" height="40" as="geometry" />
        </mxCell>
        <mxCell id="vef4McNWfD5aa6jTENem-216" value="" style="html=1;shape=mxgraph.basic.isocube;isoAngle=15;fillColor=#f8cecc;strokeColor=#b85450;" vertex="1" parent="1">
          <mxGeometry x="262" y="689" width="36" height="40" as="geometry" />
        </mxCell>
        <mxCell id="vef4McNWfD5aa6jTENem-217" value="" style="html=1;shape=mxgraph.basic.isocube;isoAngle=15;fillColor=#e1d5e7;strokeColor=#9673a6;" vertex="1" parent="1">
          <mxGeometry x="316" y="680" width="36" height="40" as="geometry" />
        </mxCell>
        <mxCell id="vef4McNWfD5aa6jTENem-218" value="" style="html=1;shape=mxgraph.basic.isocube;isoAngle=15;fillColor=#fff2cc;strokeColor=#d6b656;" vertex="1" parent="1">
          <mxGeometry x="298" y="689" width="36" height="40" as="geometry" />
        </mxCell>
        <mxCell id="vef4McNWfD5aa6jTENem-219" value="" style="html=1;shape=mxgraph.basic.isocube;isoAngle=15;fillColor=#f8cecc;strokeColor=#b85450;" vertex="1" parent="1">
          <mxGeometry x="280" y="698" width="36" height="40" as="geometry" />
        </mxCell>
        <mxCell id="vef4McNWfD5aa6jTENem-220" value="h" style="text;html=1;align=center;verticalAlign=middle;resizable=0;points=[];autosize=1;strokeColor=none;fillColor=none;" vertex="1" parent="1">
          <mxGeometry x="317" y="766" width="25" height="26" as="geometry" />
        </mxCell>
        <mxCell id="vef4McNWfD5aa6jTENem-221" value="N_qkv" style="text;html=1;align=center;verticalAlign=middle;resizable=0;points=[];autosize=1;strokeColor=none;fillColor=none;" vertex="1" parent="1">
          <mxGeometry x="197" y="707" width="52" height="26" as="geometry" />
        </mxCell>
        <mxCell id="vef4McNWfD5aa6jTENem-222" value="d_k" style="text;html=1;align=center;verticalAlign=middle;resizable=0;points=[];autosize=1;strokeColor=none;fillColor=none;rotation=30;" vertex="1" parent="1">
          <mxGeometry x="244" y="764" width="37" height="26" as="geometry" />
        </mxCell>
        <mxCell id="vef4McNWfD5aa6jTENem-252" value="" style="shape=curlyBracket;whiteSpace=wrap;html=1;rounded=1;labelPosition=left;verticalLabelPosition=middle;align=right;verticalAlign=middle;rotation=63;" vertex="1" parent="1">
          <mxGeometry x="284" y="584" width="20" height="120" as="geometry" />
        </mxCell>
        <mxCell id="vef4McNWfD5aa6jTENem-253" value="b" style="text;html=1;align=center;verticalAlign=middle;resizable=0;points=[];autosize=1;strokeColor=none;fillColor=none;" vertex="1" parent="1">
          <mxGeometry x="276" y="614" width="25" height="26" as="geometry" />
        </mxCell>
        <mxCell id="vef4McNWfD5aa6jTENem-254" value="" style="html=1;shape=mxgraph.basic.isocube;isoAngle=15;fillColor=#dae8fc;strokeColor=#6c8ebf;" vertex="1" parent="1">
          <mxGeometry x="332.5" y="848" width="36" height="40" as="geometry" />
        </mxCell>
        <mxCell id="vef4McNWfD5aa6jTENem-255" value="" style="html=1;shape=mxgraph.basic.isocube;isoAngle=15;fillColor=#dae8fc;strokeColor=#6c8ebf;" vertex="1" parent="1">
          <mxGeometry x="314.5" y="857" width="36" height="40" as="geometry" />
        </mxCell>
        <mxCell id="vef4McNWfD5aa6jTENem-256" value="" style="html=1;shape=mxgraph.basic.isocube;isoAngle=15;fillColor=#f8cecc;strokeColor=#b85450;" vertex="1" parent="1">
          <mxGeometry x="314.5" y="853" width="36" height="40" as="geometry" />
        </mxCell>
        <mxCell id="vef4McNWfD5aa6jTENem-257" value="" style="html=1;shape=mxgraph.basic.isocube;isoAngle=15;fillColor=#dae8fc;strokeColor=#6c8ebf;" vertex="1" parent="1">
          <mxGeometry x="350.5" y="857" width="36" height="40" as="geometry" />
        </mxCell>
        <mxCell id="vef4McNWfD5aa6jTENem-258" value="" style="html=1;shape=mxgraph.basic.isocube;isoAngle=15;fillColor=#dae8fc;strokeColor=#6c8ebf;" vertex="1" parent="1">
          <mxGeometry x="332.5" y="866" width="36" height="40" as="geometry" />
        </mxCell>
        <mxCell id="vef4McNWfD5aa6jTENem-259" value="" style="html=1;shape=mxgraph.basic.isocube;isoAngle=15;fillColor=#f8cecc;strokeColor=#b85450;" vertex="1" parent="1">
          <mxGeometry x="314.5" y="875" width="36" height="40" as="geometry" />
        </mxCell>
        <mxCell id="vef4McNWfD5aa6jTENem-260" value="" style="html=1;shape=mxgraph.basic.isocube;isoAngle=15;fillColor=#e1d5e7;strokeColor=#9673a6;" vertex="1" parent="1">
          <mxGeometry x="368.5" y="866" width="36" height="40" as="geometry" />
        </mxCell>
        <mxCell id="vef4McNWfD5aa6jTENem-261" value="" style="html=1;shape=mxgraph.basic.isocube;isoAngle=15;fillColor=#fff2cc;strokeColor=#d6b656;" vertex="1" parent="1">
          <mxGeometry x="350.5" y="875" width="36" height="40" as="geometry" />
        </mxCell>
        <mxCell id="vef4McNWfD5aa6jTENem-262" value="" style="html=1;shape=mxgraph.basic.isocube;isoAngle=15;fillColor=#f8cecc;strokeColor=#b85450;" vertex="1" parent="1">
          <mxGeometry x="332.5" y="884" width="36" height="40" as="geometry" />
        </mxCell>
        <mxCell id="vef4McNWfD5aa6jTENem-263" value="" style="html=1;shape=mxgraph.basic.isocube;isoAngle=15;fillColor=#dae8fc;strokeColor=#6c8ebf;" vertex="1" parent="1">
          <mxGeometry x="332.5" y="825" width="36" height="40" as="geometry" />
        </mxCell>
        <mxCell id="vef4McNWfD5aa6jTENem-264" value="" style="html=1;shape=mxgraph.basic.isocube;isoAngle=15;fillColor=#dae8fc;strokeColor=#6c8ebf;" vertex="1" parent="1">
          <mxGeometry x="314.5" y="834" width="36" height="40" as="geometry" />
        </mxCell>
        <mxCell id="vef4McNWfD5aa6jTENem-265" value="" style="html=1;shape=mxgraph.basic.isocube;isoAngle=15;fillColor=#f8cecc;strokeColor=#b85450;" vertex="1" parent="1">
          <mxGeometry x="314.5" y="830" width="36" height="40" as="geometry" />
        </mxCell>
        <mxCell id="vef4McNWfD5aa6jTENem-266" value="" style="html=1;shape=mxgraph.basic.isocube;isoAngle=15;fillColor=#dae8fc;strokeColor=#6c8ebf;" vertex="1" parent="1">
          <mxGeometry x="350.5" y="834" width="36" height="40" as="geometry" />
        </mxCell>
        <mxCell id="vef4McNWfD5aa6jTENem-267" value="" style="html=1;shape=mxgraph.basic.isocube;isoAngle=15;fillColor=#dae8fc;strokeColor=#6c8ebf;" vertex="1" parent="1">
          <mxGeometry x="332.5" y="843" width="36" height="40" as="geometry" />
        </mxCell>
        <mxCell id="vef4McNWfD5aa6jTENem-268" value="" style="html=1;shape=mxgraph.basic.isocube;isoAngle=15;fillColor=#f8cecc;strokeColor=#b85450;" vertex="1" parent="1">
          <mxGeometry x="314.5" y="852" width="36" height="40" as="geometry" />
        </mxCell>
        <mxCell id="vef4McNWfD5aa6jTENem-269" value="" style="html=1;shape=mxgraph.basic.isocube;isoAngle=15;fillColor=#e1d5e7;strokeColor=#9673a6;" vertex="1" parent="1">
          <mxGeometry x="368.5" y="843" width="36" height="40" as="geometry" />
        </mxCell>
        <mxCell id="vef4McNWfD5aa6jTENem-270" value="" style="html=1;shape=mxgraph.basic.isocube;isoAngle=15;fillColor=#fff2cc;strokeColor=#d6b656;" vertex="1" parent="1">
          <mxGeometry x="350.5" y="852" width="36" height="40" as="geometry" />
        </mxCell>
        <mxCell id="vef4McNWfD5aa6jTENem-271" value="" style="html=1;shape=mxgraph.basic.isocube;isoAngle=15;fillColor=#f8cecc;strokeColor=#b85450;" vertex="1" parent="1">
          <mxGeometry x="332.5" y="861" width="36" height="40" as="geometry" />
        </mxCell>
        <mxCell id="vef4McNWfD5aa6jTENem-272" value="" style="html=1;shape=mxgraph.basic.isocube;isoAngle=15;fillColor=#e1d5e7;strokeColor=#9673a6;" vertex="1" parent="1">
          <mxGeometry x="332.5" y="802" width="36" height="40" as="geometry" />
        </mxCell>
        <mxCell id="vef4McNWfD5aa6jTENem-273" value="" style="html=1;shape=mxgraph.basic.isocube;isoAngle=15;fillColor=#fff2cc;strokeColor=#d6b656;" vertex="1" parent="1">
          <mxGeometry x="314.5" y="811" width="36" height="40" as="geometry" />
        </mxCell>
        <mxCell id="vef4McNWfD5aa6jTENem-274" value="" style="html=1;shape=mxgraph.basic.isocube;isoAngle=15;fillColor=#f8cecc;strokeColor=#b85450;" vertex="1" parent="1">
          <mxGeometry x="296.5" y="820" width="36" height="40" as="geometry" />
        </mxCell>
        <mxCell id="vef4McNWfD5aa6jTENem-275" value="" style="html=1;shape=mxgraph.basic.isocube;isoAngle=15;fillColor=#e1d5e7;strokeColor=#9673a6;" vertex="1" parent="1">
          <mxGeometry x="350.5" y="811" width="36" height="40" as="geometry" />
        </mxCell>
        <mxCell id="vef4McNWfD5aa6jTENem-276" value="" style="html=1;shape=mxgraph.basic.isocube;isoAngle=15;fillColor=#fff2cc;strokeColor=#d6b656;" vertex="1" parent="1">
          <mxGeometry x="332.5" y="820" width="36" height="40" as="geometry" />
        </mxCell>
        <mxCell id="vef4McNWfD5aa6jTENem-277" value="" style="html=1;shape=mxgraph.basic.isocube;isoAngle=15;fillColor=#f8cecc;strokeColor=#b85450;" vertex="1" parent="1">
          <mxGeometry x="314.5" y="829" width="36" height="40" as="geometry" />
        </mxCell>
        <mxCell id="vef4McNWfD5aa6jTENem-278" value="" style="html=1;shape=mxgraph.basic.isocube;isoAngle=15;fillColor=#e1d5e7;strokeColor=#9673a6;" vertex="1" parent="1">
          <mxGeometry x="368.5" y="820" width="36" height="40" as="geometry" />
        </mxCell>
        <mxCell id="vef4McNWfD5aa6jTENem-279" value="" style="html=1;shape=mxgraph.basic.isocube;isoAngle=15;fillColor=#fff2cc;strokeColor=#d6b656;" vertex="1" parent="1">
          <mxGeometry x="350.5" y="829" width="36" height="40" as="geometry" />
        </mxCell>
        <mxCell id="vef4McNWfD5aa6jTENem-280" value="" style="html=1;shape=mxgraph.basic.isocube;isoAngle=15;fillColor=#f8cecc;strokeColor=#b85450;" vertex="1" parent="1">
          <mxGeometry x="332.5" y="838" width="36" height="40" as="geometry" />
        </mxCell>
        <mxCell id="vef4McNWfD5aa6jTENem-281" value="h" style="text;html=1;align=center;verticalAlign=middle;resizable=0;points=[];autosize=1;strokeColor=none;fillColor=none;" vertex="1" parent="1">
          <mxGeometry x="374" y="911" width="25" height="26" as="geometry" />
        </mxCell>
        <mxCell id="vef4McNWfD5aa6jTENem-282" value="" style="html=1;shape=mxgraph.basic.isocube;isoAngle=15;fillColor=#dae8fc;strokeColor=#6c8ebf;" vertex="1" parent="1">
          <mxGeometry x="277.5" y="875" width="36" height="40" as="geometry" />
        </mxCell>
        <mxCell id="vef4McNWfD5aa6jTENem-283" value="" style="html=1;shape=mxgraph.basic.isocube;isoAngle=15;fillColor=#dae8fc;strokeColor=#6c8ebf;" vertex="1" parent="1">
          <mxGeometry x="259.5" y="884" width="36" height="40" as="geometry" />
        </mxCell>
        <mxCell id="vef4McNWfD5aa6jTENem-284" value="" style="html=1;shape=mxgraph.basic.isocube;isoAngle=15;fillColor=#f8cecc;strokeColor=#b85450;" vertex="1" parent="1">
          <mxGeometry x="241.5" y="893" width="36" height="40" as="geometry" />
        </mxCell>
        <mxCell id="vef4McNWfD5aa6jTENem-285" value="" style="html=1;shape=mxgraph.basic.isocube;isoAngle=15;fillColor=#dae8fc;strokeColor=#6c8ebf;" vertex="1" parent="1">
          <mxGeometry x="295.5" y="884" width="36" height="40" as="geometry" />
        </mxCell>
        <mxCell id="vef4McNWfD5aa6jTENem-286" value="" style="html=1;shape=mxgraph.basic.isocube;isoAngle=15;fillColor=#dae8fc;strokeColor=#6c8ebf;" vertex="1" parent="1">
          <mxGeometry x="277.5" y="893" width="36" height="40" as="geometry" />
        </mxCell>
        <mxCell id="vef4McNWfD5aa6jTENem-287" value="" style="html=1;shape=mxgraph.basic.isocube;isoAngle=15;fillColor=#f8cecc;strokeColor=#b85450;" vertex="1" parent="1">
          <mxGeometry x="259.5" y="902" width="36" height="40" as="geometry" />
        </mxCell>
        <mxCell id="vef4McNWfD5aa6jTENem-288" value="" style="html=1;shape=mxgraph.basic.isocube;isoAngle=15;fillColor=#e1d5e7;strokeColor=#9673a6;" vertex="1" parent="1">
          <mxGeometry x="313.5" y="893" width="36" height="40" as="geometry" />
        </mxCell>
        <mxCell id="vef4McNWfD5aa6jTENem-289" value="" style="html=1;shape=mxgraph.basic.isocube;isoAngle=15;fillColor=#fff2cc;strokeColor=#d6b656;" vertex="1" parent="1">
          <mxGeometry x="295.5" y="902" width="36" height="40" as="geometry" />
        </mxCell>
        <mxCell id="vef4McNWfD5aa6jTENem-290" value="" style="html=1;shape=mxgraph.basic.isocube;isoAngle=15;fillColor=#f8cecc;strokeColor=#b85450;" vertex="1" parent="1">
          <mxGeometry x="277.5" y="911" width="36" height="40" as="geometry" />
        </mxCell>
        <mxCell id="vef4McNWfD5aa6jTENem-291" value="" style="html=1;shape=mxgraph.basic.isocube;isoAngle=15;fillColor=#dae8fc;strokeColor=#6c8ebf;" vertex="1" parent="1">
          <mxGeometry x="277.5" y="852" width="36" height="40" as="geometry" />
        </mxCell>
        <mxCell id="vef4McNWfD5aa6jTENem-292" value="" style="html=1;shape=mxgraph.basic.isocube;isoAngle=15;fillColor=#dae8fc;strokeColor=#6c8ebf;" vertex="1" parent="1">
          <mxGeometry x="259.5" y="861" width="36" height="40" as="geometry" />
        </mxCell>
        <mxCell id="vef4McNWfD5aa6jTENem-293" value="" style="html=1;shape=mxgraph.basic.isocube;isoAngle=15;fillColor=#f8cecc;strokeColor=#b85450;" vertex="1" parent="1">
          <mxGeometry x="241.5" y="870" width="36" height="40" as="geometry" />
        </mxCell>
        <mxCell id="vef4McNWfD5aa6jTENem-294" value="" style="html=1;shape=mxgraph.basic.isocube;isoAngle=15;fillColor=#dae8fc;strokeColor=#6c8ebf;" vertex="1" parent="1">
          <mxGeometry x="295.5" y="861" width="36" height="40" as="geometry" />
        </mxCell>
        <mxCell id="vef4McNWfD5aa6jTENem-295" value="" style="html=1;shape=mxgraph.basic.isocube;isoAngle=15;fillColor=#dae8fc;strokeColor=#6c8ebf;" vertex="1" parent="1">
          <mxGeometry x="277.5" y="870" width="36" height="40" as="geometry" />
        </mxCell>
        <mxCell id="vef4McNWfD5aa6jTENem-296" value="" style="html=1;shape=mxgraph.basic.isocube;isoAngle=15;fillColor=#f8cecc;strokeColor=#b85450;" vertex="1" parent="1">
          <mxGeometry x="259.5" y="879" width="36" height="40" as="geometry" />
        </mxCell>
        <mxCell id="vef4McNWfD5aa6jTENem-297" value="" style="html=1;shape=mxgraph.basic.isocube;isoAngle=15;fillColor=#e1d5e7;strokeColor=#9673a6;" vertex="1" parent="1">
          <mxGeometry x="313.5" y="870" width="36" height="40" as="geometry" />
        </mxCell>
        <mxCell id="vef4McNWfD5aa6jTENem-298" value="" style="html=1;shape=mxgraph.basic.isocube;isoAngle=15;fillColor=#fff2cc;strokeColor=#d6b656;" vertex="1" parent="1">
          <mxGeometry x="295.5" y="879" width="36" height="40" as="geometry" />
        </mxCell>
        <mxCell id="vef4McNWfD5aa6jTENem-299" value="" style="html=1;shape=mxgraph.basic.isocube;isoAngle=15;fillColor=#f8cecc;strokeColor=#b85450;" vertex="1" parent="1">
          <mxGeometry x="277.5" y="888" width="36" height="40" as="geometry" />
        </mxCell>
        <mxCell id="vef4McNWfD5aa6jTENem-300" value="" style="html=1;shape=mxgraph.basic.isocube;isoAngle=15;fillColor=#e1d5e7;strokeColor=#9673a6;" vertex="1" parent="1">
          <mxGeometry x="277.5" y="829" width="36" height="40" as="geometry" />
        </mxCell>
        <mxCell id="vef4McNWfD5aa6jTENem-301" value="" style="html=1;shape=mxgraph.basic.isocube;isoAngle=15;fillColor=#fff2cc;strokeColor=#d6b656;" vertex="1" parent="1">
          <mxGeometry x="259.5" y="838" width="36" height="40" as="geometry" />
        </mxCell>
        <mxCell id="vef4McNWfD5aa6jTENem-302" value="" style="html=1;shape=mxgraph.basic.isocube;isoAngle=15;fillColor=#f8cecc;strokeColor=#b85450;" vertex="1" parent="1">
          <mxGeometry x="241.5" y="847" width="36" height="40" as="geometry" />
        </mxCell>
        <mxCell id="vef4McNWfD5aa6jTENem-303" value="" style="html=1;shape=mxgraph.basic.isocube;isoAngle=15;fillColor=#e1d5e7;strokeColor=#9673a6;" vertex="1" parent="1">
          <mxGeometry x="295.5" y="838" width="36" height="40" as="geometry" />
        </mxCell>
        <mxCell id="vef4McNWfD5aa6jTENem-304" value="" style="html=1;shape=mxgraph.basic.isocube;isoAngle=15;fillColor=#fff2cc;strokeColor=#d6b656;" vertex="1" parent="1">
          <mxGeometry x="277.5" y="847" width="36" height="40" as="geometry" />
        </mxCell>
        <mxCell id="vef4McNWfD5aa6jTENem-305" value="" style="html=1;shape=mxgraph.basic.isocube;isoAngle=15;fillColor=#f8cecc;strokeColor=#b85450;" vertex="1" parent="1">
          <mxGeometry x="259.5" y="856" width="36" height="40" as="geometry" />
        </mxCell>
        <mxCell id="vef4McNWfD5aa6jTENem-306" value="" style="html=1;shape=mxgraph.basic.isocube;isoAngle=15;fillColor=#e1d5e7;strokeColor=#9673a6;" vertex="1" parent="1">
          <mxGeometry x="313.5" y="847" width="36" height="40" as="geometry" />
        </mxCell>
        <mxCell id="vef4McNWfD5aa6jTENem-307" value="" style="html=1;shape=mxgraph.basic.isocube;isoAngle=15;fillColor=#fff2cc;strokeColor=#d6b656;" vertex="1" parent="1">
          <mxGeometry x="295.5" y="856" width="36" height="40" as="geometry" />
        </mxCell>
        <mxCell id="vef4McNWfD5aa6jTENem-308" value="" style="html=1;shape=mxgraph.basic.isocube;isoAngle=15;fillColor=#f8cecc;strokeColor=#b85450;" vertex="1" parent="1">
          <mxGeometry x="277.5" y="865" width="36" height="40" as="geometry" />
        </mxCell>
        <mxCell id="vef4McNWfD5aa6jTENem-309" value="h" style="text;html=1;align=center;verticalAlign=middle;resizable=0;points=[];autosize=1;strokeColor=none;fillColor=none;" vertex="1" parent="1">
          <mxGeometry x="314.5" y="933" width="25" height="26" as="geometry" />
        </mxCell>
        <mxCell id="vef4McNWfD5aa6jTENem-310" value="d_k" style="text;html=1;align=center;verticalAlign=middle;resizable=0;points=[];autosize=1;strokeColor=none;fillColor=none;rotation=30;" vertex="1" parent="1">
          <mxGeometry x="240" y="933" width="37" height="26" as="geometry" />
        </mxCell>
        <mxCell id="vef4McNWfD5aa6jTENem-311" value="b*h" style="text;html=1;align=center;verticalAlign=middle;resizable=0;points=[];autosize=1;strokeColor=none;fillColor=none;" vertex="1" parent="1">
          <mxGeometry x="276.5" y="804" width="36" height="26" as="geometry" />
        </mxCell>
        <mxCell id="vef4McNWfD5aa6jTENem-315" value="" style="shape=crossbar;whiteSpace=wrap;html=1;rounded=1;direction=south;rotation=65;" vertex="1" parent="1">
          <mxGeometry x="374.89" y="886.42" width="10.7" height="60" as="geometry" />
        </mxCell>
        <mxCell id="vef4McNWfD5aa6jTENem-316" value="N_qkv" style="text;html=1;align=center;verticalAlign=middle;resizable=0;points=[];autosize=1;strokeColor=none;fillColor=none;" vertex="1" parent="1">
          <mxGeometry x="195" y="885" width="52" height="26" as="geometry" />
        </mxCell>
        <mxCell id="vef4McNWfD5aa6jTENem-318" value="" style="shape=flexArrow;endArrow=classic;html=1;rounded=0;endWidth=4.756242568370987;endSize=4.975862068965517;width=6.206896551724138;" edge="1" parent="1">
          <mxGeometry width="50" height="50" relative="1" as="geometry">
            <mxPoint x="76" y="778" as="sourcePoint" />
            <mxPoint x="76" y="817" as="targetPoint" />
          </mxGeometry>
        </mxCell>
        <mxCell id="vef4McNWfD5aa6jTENem-319" value="" style="html=1;shape=mxgraph.basic.isocube;isoAngle=15;fillColor=#dae8fc;strokeColor=#6c8ebf;" vertex="1" parent="1">
          <mxGeometry x="57.5" y="871" width="36" height="40" as="geometry" />
        </mxCell>
        <mxCell id="vef4McNWfD5aa6jTENem-320" value="" style="html=1;shape=mxgraph.basic.isocube;isoAngle=15;fillColor=#dae8fc;strokeColor=#6c8ebf;" vertex="1" parent="1">
          <mxGeometry x="39.5" y="880" width="36" height="40" as="geometry" />
        </mxCell>
        <mxCell id="vef4McNWfD5aa6jTENem-321" value="" style="html=1;shape=mxgraph.basic.isocube;isoAngle=15;fillColor=#1ba1e2;strokeColor=#006EAF;fontColor=#ffffff;" vertex="1" parent="1">
          <mxGeometry x="21.5" y="889" width="36" height="40" as="geometry" />
        </mxCell>
        <mxCell id="vef4McNWfD5aa6jTENem-322" value="" style="html=1;shape=mxgraph.basic.isocube;isoAngle=15;fillColor=#dae8fc;strokeColor=#6c8ebf;" vertex="1" parent="1">
          <mxGeometry x="75.5" y="880" width="36" height="40" as="geometry" />
        </mxCell>
        <mxCell id="vef4McNWfD5aa6jTENem-323" value="" style="html=1;shape=mxgraph.basic.isocube;isoAngle=15;fillColor=#dae8fc;strokeColor=#6c8ebf;" vertex="1" parent="1">
          <mxGeometry x="57.5" y="889" width="36" height="40" as="geometry" />
        </mxCell>
        <mxCell id="vef4McNWfD5aa6jTENem-324" value="" style="html=1;shape=mxgraph.basic.isocube;isoAngle=15;fillColor=#1ba1e2;strokeColor=#006EAF;fontColor=#ffffff;" vertex="1" parent="1">
          <mxGeometry x="39.5" y="898" width="36" height="40" as="geometry" />
        </mxCell>
        <mxCell id="vef4McNWfD5aa6jTENem-325" value="" style="html=1;shape=mxgraph.basic.isocube;isoAngle=15;fillColor=#dae8fc;strokeColor=#6c8ebf;" vertex="1" parent="1">
          <mxGeometry x="93.5" y="889" width="36" height="40" as="geometry" />
        </mxCell>
        <mxCell id="vef4McNWfD5aa6jTENem-326" value="" style="html=1;shape=mxgraph.basic.isocube;isoAngle=15;fillColor=#dae8fc;strokeColor=#6c8ebf;" vertex="1" parent="1">
          <mxGeometry x="75.5" y="898" width="36" height="40" as="geometry" />
        </mxCell>
        <mxCell id="vef4McNWfD5aa6jTENem-327" value="" style="html=1;shape=mxgraph.basic.isocube;isoAngle=15;fillColor=#1ba1e2;strokeColor=#006EAF;fontColor=#ffffff;" vertex="1" parent="1">
          <mxGeometry x="57.5" y="907" width="36" height="40" as="geometry" />
        </mxCell>
        <mxCell id="vef4McNWfD5aa6jTENem-328" value="" style="html=1;shape=mxgraph.basic.isocube;isoAngle=15;fillColor=#dae8fc;strokeColor=#6c8ebf;" vertex="1" parent="1">
          <mxGeometry x="57.5" y="848" width="36" height="40" as="geometry" />
        </mxCell>
        <mxCell id="vef4McNWfD5aa6jTENem-329" value="" style="html=1;shape=mxgraph.basic.isocube;isoAngle=15;fillColor=#dae8fc;strokeColor=#6c8ebf;" vertex="1" parent="1">
          <mxGeometry x="39.5" y="857" width="36" height="40" as="geometry" />
        </mxCell>
        <mxCell id="vef4McNWfD5aa6jTENem-330" value="" style="html=1;shape=mxgraph.basic.isocube;isoAngle=15;fillColor=#008a00;strokeColor=#005700;fontColor=#ffffff;" vertex="1" parent="1">
          <mxGeometry x="21.5" y="866" width="36" height="40" as="geometry" />
        </mxCell>
        <mxCell id="vef4McNWfD5aa6jTENem-331" value="" style="html=1;shape=mxgraph.basic.isocube;isoAngle=15;fillColor=#dae8fc;strokeColor=#6c8ebf;" vertex="1" parent="1">
          <mxGeometry x="75.5" y="857" width="36" height="40" as="geometry" />
        </mxCell>
        <mxCell id="vef4McNWfD5aa6jTENem-332" value="" style="html=1;shape=mxgraph.basic.isocube;isoAngle=15;fillColor=#dae8fc;strokeColor=#6c8ebf;" vertex="1" parent="1">
          <mxGeometry x="57.5" y="866" width="36" height="40" as="geometry" />
        </mxCell>
        <mxCell id="vef4McNWfD5aa6jTENem-333" value="" style="html=1;shape=mxgraph.basic.isocube;isoAngle=15;fillColor=#008a00;strokeColor=#005700;fontColor=#ffffff;" vertex="1" parent="1">
          <mxGeometry x="39.5" y="875" width="36" height="40" as="geometry" />
        </mxCell>
        <mxCell id="vef4McNWfD5aa6jTENem-334" value="" style="html=1;shape=mxgraph.basic.isocube;isoAngle=15;fillColor=#dae8fc;strokeColor=#6c8ebf;" vertex="1" parent="1">
          <mxGeometry x="93.5" y="866" width="36" height="40" as="geometry" />
        </mxCell>
        <mxCell id="vef4McNWfD5aa6jTENem-335" value="" style="html=1;shape=mxgraph.basic.isocube;isoAngle=15;fillColor=#dae8fc;strokeColor=#6c8ebf;" vertex="1" parent="1">
          <mxGeometry x="75.5" y="875" width="36" height="40" as="geometry" />
        </mxCell>
        <mxCell id="vef4McNWfD5aa6jTENem-336" value="" style="html=1;shape=mxgraph.basic.isocube;isoAngle=15;fillColor=#008a00;strokeColor=#005700;fontColor=#ffffff;" vertex="1" parent="1">
          <mxGeometry x="57.5" y="884" width="36" height="40" as="geometry" />
        </mxCell>
        <mxCell id="vef4McNWfD5aa6jTENem-337" value="" style="html=1;shape=mxgraph.basic.isocube;isoAngle=15;fillColor=#dae8fc;strokeColor=#6c8ebf;" vertex="1" parent="1">
          <mxGeometry x="57.5" y="825" width="36" height="40" as="geometry" />
        </mxCell>
        <mxCell id="vef4McNWfD5aa6jTENem-338" value="" style="html=1;shape=mxgraph.basic.isocube;isoAngle=15;fillColor=#dae8fc;strokeColor=#6c8ebf;" vertex="1" parent="1">
          <mxGeometry x="39.5" y="834" width="36" height="40" as="geometry" />
        </mxCell>
        <mxCell id="vef4McNWfD5aa6jTENem-339" value="" style="html=1;shape=mxgraph.basic.isocube;isoAngle=15;fillColor=#60a917;strokeColor=#2D7600;fontColor=#ffffff;" vertex="1" parent="1">
          <mxGeometry x="21.5" y="843" width="36" height="40" as="geometry" />
        </mxCell>
        <mxCell id="vef4McNWfD5aa6jTENem-340" value="" style="html=1;shape=mxgraph.basic.isocube;isoAngle=15;fillColor=#dae8fc;strokeColor=#6c8ebf;" vertex="1" parent="1">
          <mxGeometry x="75.5" y="834" width="36" height="40" as="geometry" />
        </mxCell>
        <mxCell id="vef4McNWfD5aa6jTENem-341" value="" style="html=1;shape=mxgraph.basic.isocube;isoAngle=15;fillColor=#dae8fc;strokeColor=#6c8ebf;" vertex="1" parent="1">
          <mxGeometry x="57.5" y="843" width="36" height="40" as="geometry" />
        </mxCell>
        <mxCell id="vef4McNWfD5aa6jTENem-342" value="" style="html=1;shape=mxgraph.basic.isocube;isoAngle=15;fillColor=#60a917;strokeColor=#2D7600;fontColor=#ffffff;" vertex="1" parent="1">
          <mxGeometry x="39.5" y="852" width="36" height="40" as="geometry" />
        </mxCell>
        <mxCell id="vef4McNWfD5aa6jTENem-343" value="" style="html=1;shape=mxgraph.basic.isocube;isoAngle=15;fillColor=#dae8fc;strokeColor=#6c8ebf;" vertex="1" parent="1">
          <mxGeometry x="93.5" y="843" width="36" height="40" as="geometry" />
        </mxCell>
        <mxCell id="vef4McNWfD5aa6jTENem-344" value="" style="html=1;shape=mxgraph.basic.isocube;isoAngle=15;fillColor=#dae8fc;strokeColor=#6c8ebf;" vertex="1" parent="1">
          <mxGeometry x="75.5" y="852" width="36" height="40" as="geometry" />
        </mxCell>
        <mxCell id="vef4McNWfD5aa6jTENem-345" value="" style="html=1;shape=mxgraph.basic.isocube;isoAngle=15;fillColor=#60a917;strokeColor=#2D7600;fontColor=#ffffff;" vertex="1" parent="1">
          <mxGeometry x="57.5" y="861" width="36" height="40" as="geometry" />
        </mxCell>
        <mxCell id="vef4McNWfD5aa6jTENem-346" value="b" style="text;html=1;align=center;verticalAlign=middle;resizable=0;points=[];autosize=1;strokeColor=none;fillColor=none;" vertex="1" parent="1">
          <mxGeometry x="94.5" y="929" width="25" height="26" as="geometry" />
        </mxCell>
        <mxCell id="vef4McNWfD5aa6jTENem-347" value="N_q" style="text;html=1;align=center;verticalAlign=middle;resizable=0;points=[];autosize=1;strokeColor=none;fillColor=none;" vertex="1" parent="1">
          <mxGeometry x="-19.5" y="870" width="40" height="26" as="geometry" />
        </mxCell>
        <mxCell id="vef4McNWfD5aa6jTENem-348" value="d_model" style="text;html=1;align=center;verticalAlign=middle;resizable=0;points=[];autosize=1;strokeColor=none;fillColor=none;rotation=30;" vertex="1" parent="1">
          <mxGeometry x="7.5" y="927" width="64" height="26" as="geometry" />
        </mxCell>
        <mxCell id="vef4McNWfD5aa6jTENem-349" value="" style="endArrow=classic;html=1;rounded=0;" edge="1" parent="1">
          <mxGeometry width="50" height="50" relative="1" as="geometry">
            <mxPoint x="25" y="865" as="sourcePoint" />
            <mxPoint x="74" y="889" as="targetPoint" />
          </mxGeometry>
        </mxCell>
        <mxCell id="vef4McNWfD5aa6jTENem-350" value="" style="endArrow=classic;html=1;rounded=0;" edge="1" parent="1">
          <mxGeometry width="50" height="50" relative="1" as="geometry">
            <mxPoint x="25" y="888" as="sourcePoint" />
            <mxPoint x="74" y="912" as="targetPoint" />
          </mxGeometry>
        </mxCell>
        <mxCell id="vef4McNWfD5aa6jTENem-351" value="" style="endArrow=classic;html=1;rounded=0;" edge="1" parent="1">
          <mxGeometry width="50" height="50" relative="1" as="geometry">
            <mxPoint x="25" y="912" as="sourcePoint" />
            <mxPoint x="74" y="936" as="targetPoint" />
          </mxGeometry>
        </mxCell>
      </root>
    </mxGraphModel>
  </diagram>
</mxfile>
